<svg width="390" height="234" viewBox="0 0 390 234" fill="none" xmlns="http://www.w3.org/2000/svg">
<path d="M346.267 95.1277C343.62 95.1277 341.016 95.4028 338.497 95.8686C331.087 65.6782 303.839 43.279 271.362 43.279C268.314 43.279 265.329 43.4907 262.386 43.8717C259.824 22.4463 241.617 5.82679 219.514 5.82679C207.637 5.82679 196.882 10.6115 189.069 18.3814C174.969 6.94886 156.995 0.0681763 137.411 0.0681763C92.0621 0.0681763 55.3086 36.8217 55.3086 82.1708C55.3086 83.187 55.3509 84.2244 55.3932 85.2406C51.6883 84.2032 47.8139 83.6104 43.7913 83.6104C19.9312 83.6104 0.580566 102.961 0.580566 126.821C0.580566 150.681 19.9312 170.032 43.7913 170.032C44.8287 170.032 45.8661 169.947 46.8824 169.884C48.9783 192.579 68.0749 210.363 91.3211 210.363C97.9477 210.363 104.214 208.881 109.888 206.277C121.935 222.728 141.391 233.398 163.346 233.398C182.062 233.398 198.935 225.628 210.982 213.158C223.494 225.649 240.77 233.398 259.845 233.398C293.55 233.398 321.623 209.262 327.742 177.315C333.373 179.982 339.64 181.528 346.267 181.528C370.127 181.528 389.478 162.177 389.478 138.317C389.478 114.457 370.127 95.1065 346.267 95.1065V95.1277Z" fill="white"/>
</svg>
