<svg width="474" height="209" viewBox="0 0 474 209" fill="none" xmlns="http://www.w3.org/2000/svg">
<path d="M237.208 201.684C252.004 201.684 266.041 198.47 278.673 192.735C289.407 202.778 303.802 208.915 319.669 208.915C340.893 208.915 359.528 197.89 370.195 181.286C377.448 191.039 389.053 197.332 402.131 197.332C417.753 197.332 431.277 188.316 437.772 175.216C441.32 177.314 445.449 178.541 449.867 178.541C463.057 178.541 473.747 167.851 473.747 154.662C473.747 141.472 463.057 130.783 449.867 130.783C447.056 130.783 444.377 131.296 441.878 132.188C441.097 111.701 424.247 95.3429 403.582 95.3429C401.618 95.3429 399.699 95.4992 397.802 95.767C389.41 72.7357 367.316 56.2657 341.384 56.2657C336.764 56.2657 332.279 56.8013 327.971 57.7832C311.791 23.9505 277.245 0.562134 237.23 0.562134C197.215 0.562134 162.668 23.9505 146.489 57.7832C142.181 56.8013 137.696 56.2657 133.076 56.2657C107.143 56.2657 85.0272 72.7134 76.6583 95.767C74.7836 95.4768 72.8421 95.3429 70.8782 95.3429C50.2125 95.3429 33.3631 111.701 32.582 132.188C30.0825 131.296 27.4044 130.783 24.5924 130.783C11.403 130.783 0.713135 141.472 0.713135 154.662C0.713135 167.851 11.403 178.541 24.5924 178.541C29.0112 178.541 33.1399 177.314 36.6883 175.216C43.2049 188.316 56.7068 197.332 72.3288 197.332C85.4066 197.332 97.0115 191.016 104.265 181.286C114.932 197.89 133.567 208.915 154.79 208.915C170.636 208.915 185.053 202.755 195.787 192.735C208.441 198.47 222.456 201.684 237.252 201.684H237.208Z" fill="white"/>
</svg>
