<svg width="1294" height="448" viewBox="0 0 1294 448" fill="none" xmlns="http://www.w3.org/2000/svg">
<path d="M1242.1 205.993C1238.69 205.993 1235.38 206.361 1232.15 206.96C1232.66 203.691 1233.03 200.33 1233.03 196.923C1233.03 161.884 1204.62 133.476 1169.58 133.476C1162.03 133.476 1154.85 134.857 1148.17 137.251C1145.55 111.375 1123.68 91.1627 1097.07 91.1627C1094.62 91.1627 1092.23 91.3929 1089.84 91.7152C1074.73 62.6623 1044.44 42.8179 1009.4 42.8179C996.6 42.8179 984.399 45.4884 973.348 50.3229C939.968 19.4283 895.306 0.550781 846.225 0.550781C773.109 0.550781 709.846 42.4495 678.998 103.502C666.981 99.4964 654.135 97.2404 640.782 97.2404C605.237 97.2404 573.33 112.711 551.229 137.159C543.218 134.811 534.746 133.522 525.952 133.522C515.316 133.522 505.187 135.456 495.702 138.817C486.677 121.321 468.445 109.349 447.403 109.349C428.48 109.349 411.858 119.018 402.097 133.66C388.745 125.925 373.274 121.413 356.745 121.413C324.699 121.413 296.613 138.08 280.498 163.173C272.395 159.628 263.463 157.648 254.024 157.648C226.997 157.648 203.791 173.809 193.432 196.923C184.822 191.213 174.508 187.852 163.412 187.852C143.568 187.852 126.255 198.488 116.771 214.373C112.443 212.899 107.838 212.025 102.958 212.025C85.9682 212.025 71.4187 222.016 64.6504 236.473C58.2044 232.514 50.6534 230.166 42.5039 230.166C19.1602 230.166 0.190674 249.089 0.190674 272.479C0.190674 295.868 19.1142 314.792 42.5039 314.792C47.7988 314.792 52.8174 313.779 57.5138 311.983C63.6835 327.73 78.9697 338.964 96.9263 338.964C102.682 338.964 108.207 337.813 113.179 335.695C121.375 355.355 140.759 369.168 163.366 369.168C170.595 369.168 177.501 367.741 183.809 365.163C195.135 385.559 216.914 399.372 241.915 399.372C258.674 399.372 273.914 393.157 285.609 382.935C302.231 403.977 327.876 417.513 356.745 417.513C381.148 417.513 403.248 407.798 419.547 392.144C429.17 407.384 446.16 417.513 465.498 417.513C478.436 417.513 490.315 412.955 499.661 405.45C509.699 409.317 520.565 411.482 531.983 411.482C556.156 411.482 578.072 401.951 594.325 386.526C607.908 394.676 623.746 399.418 640.736 399.418C655.93 399.418 670.204 395.643 682.773 389.059C699.579 420.414 732.637 441.732 770.669 441.732C802.162 441.732 830.202 427.09 848.481 404.253C861.373 430.037 887.939 447.763 918.696 447.763C951.386 447.763 979.38 427.827 991.213 399.418C1000.51 403.286 1010.74 405.45 1021.42 405.45C1057.24 405.45 1087.44 381.416 1096.88 348.633C1109.73 357.75 1125.34 363.183 1142.28 363.183C1179.3 363.183 1210.24 337.537 1218.57 303.097C1225.62 306.688 1233.54 308.806 1242.01 308.806C1270.37 308.806 1293.39 285.831 1293.39 257.423C1293.39 229.014 1270.42 206.039 1242.01 206.039L1242.1 205.993Z" fill="white"/>
</svg>
