<svg width="23" height="23" viewBox="0 0 23 23" fill="none" xmlns="http://www.w3.org/2000/svg">
<path d="M11.3781 0.676758C8.47122 0.676758 6.11481 3.03319 6.11481 5.94C6.11481 6.17569 5.92374 6.36676 5.68805 6.36676C2.78124 6.36676 0.424805 8.72317 0.424805 11.63C0.424805 14.5368 2.78124 16.8933 5.68805 16.8933C5.92374 16.8933 6.11481 17.0843 6.11481 17.32C6.11481 20.2268 8.47122 22.5833 11.3781 22.5833C14.2849 22.5833 16.6413 20.2268 16.6413 17.32C16.6413 17.0843 16.8324 16.8933 17.068 16.8933C19.9748 16.8933 22.3313 14.5368 22.3313 11.63C22.3313 8.72317 19.9748 6.36676 17.068 6.36676C16.8324 6.36676 16.6413 6.17569 16.6413 5.94C16.6413 3.03319 14.2849 0.676758 11.3781 0.676758Z" fill="#99FF99"/>
</svg>
