<svg width="49" height="65" viewBox="0 0 49 65" fill="none" xmlns="http://www.w3.org/2000/svg">
<circle cx="19.6139" cy="19.6139" r="19.6139" transform="matrix(-1 0 0 1 44.1221 3.8852)" fill="#FF0000"/>
<circle cx="9.80696" cy="9.80696" r="9.80696" transform="matrix(-1 0 0 1 45.0535 5.17706)" fill="#FF0000"/>
<circle cx="9.80696" cy="9.80696" r="9.80696" transform="matrix(-1 0 0 1 33.7568 0.383083)" fill="#FF0000"/>
<circle cx="9.80696" cy="9.80696" r="9.80696" transform="matrix(-1 0 0 1 23.2417 5.17706)" fill="#FF0000"/>
<circle cx="9.80696" cy="9.80696" r="9.80696" transform="matrix(-1 0 0 1 19.8071 17.1226)" fill="#FF0000"/>
<circle cx="9.80696" cy="9.80696" r="9.80696" transform="matrix(-1 0 0 1 27.0022 27.2134)" fill="#FF0000"/>
<circle cx="9.80696" cy="9.80696" r="9.80696" transform="matrix(-1 0 0 1 48.1477 16.2759)" fill="#FF0000"/>
<circle cx="9.80696" cy="9.80696" r="9.80696" transform="matrix(-1 0 0 1 41.7979 27.2134)" fill="#FF0000"/>
<circle cx="13.8751" cy="13.8751" r="13.8751" transform="matrix(-1 0 0 1 39.3083 9.31651)" fill="#CC0000"/>
<circle cx="13.8751" cy="13.8751" r="13.8751" transform="matrix(-1 0 0 1 39.7004 8.53195)" fill="#FF6666"/>
<path d="M22.148 16.81C21.3789 16.7317 20.6918 17.2916 20.6134 18.0607L20.3414 20.7305C20.263 21.4996 20.8229 22.1867 21.592 22.2651V22.2651C22.3612 22.3434 23.0482 21.7835 23.1266 21.0144L23.3987 18.3446C23.477 17.5755 22.9171 16.8884 22.148 16.81V16.81Z" fill="black"/>
<path d="M32.3086 16.81C33.0777 16.7317 33.7647 17.2916 33.8431 18.0607L34.1152 20.7305C34.1936 21.4996 33.6336 22.1867 32.8645 22.2651V22.2651C32.0954 22.3434 31.4083 21.7835 31.33 21.0144L31.0579 18.3446C30.9795 17.5755 31.5395 16.8884 32.3086 16.81V16.81Z" fill="black"/>
<rect width="2.73594" height="19.5852" transform="matrix(-0.866025 0.5 0.5 0.866025 32.4744 43.8255)" fill="#FF0000"/>
<path d="M40.8811 58.4906C39.6427 59.2057 39.2183 60.7893 39.9334 62.0278L40.0066 62.1547L44.4915 59.5653L44.4183 59.4384C43.7032 58.1999 42.1196 57.7756 40.8811 58.4906V58.4906Z" fill="#FF0000"/>
<path d="M10.7822 60.9375C12.1736 61.268 13.0336 62.6638 12.7031 64.0552L12.6693 64.1978L7.63072 63.001L7.66459 62.8584C7.99506 61.4671 9.39088 60.6071 10.7822 60.9375V60.9375Z" fill="#FF0000"/>
<rect x="14.5334" y="44.5105" width="2.73594" height="19.5852" transform="rotate(13.3612 14.5334 44.5105)" fill="#FF0000"/>
</svg>
