<svg width="49" height="61" viewBox="0 0 49 61" fill="none" xmlns="http://www.w3.org/2000/svg">
<circle cx="19.6139" cy="19.6139" r="19.6139" transform="matrix(-1 0 0 1 44.543 3.67917)" fill="#FF0000"/>
<circle cx="9.80696" cy="9.80696" r="9.80696" transform="matrix(-1 0 0 1 45.4744 4.97104)" fill="#FF0000"/>
<circle cx="9.80696" cy="9.80696" r="9.80696" transform="matrix(-1 0 0 1 34.1777 0.177059)" fill="#FF0000"/>
<circle cx="9.80696" cy="9.80696" r="9.80696" transform="matrix(-1 0 0 1 23.6626 4.97104)" fill="#FF0000"/>
<circle cx="9.80696" cy="9.80696" r="9.80696" transform="matrix(-1 0 0 1 20.228 16.9165)" fill="#FF0000"/>
<circle cx="9.80696" cy="9.80696" r="9.80696" transform="matrix(-1 0 0 1 27.4231 27.0074)" fill="#FF0000"/>
<circle cx="9.80696" cy="9.80696" r="9.80696" transform="matrix(-1 0 0 1 48.5686 16.0698)" fill="#FF0000"/>
<circle cx="9.80696" cy="9.80696" r="9.80696" transform="matrix(-1 0 0 1 42.2188 27.0074)" fill="#FF0000"/>
<circle cx="13.8751" cy="13.8751" r="13.8751" transform="matrix(-1 0 0 1 39.7292 9.11049)" fill="#CC0000"/>
<circle cx="13.8751" cy="13.8751" r="13.8751" transform="matrix(-1 0 0 1 40.1213 8.32593)" fill="#FF6666"/>
<path d="M22.5689 16.604C21.7998 16.5256 21.1127 17.0856 21.0343 17.8547L20.7623 20.5245C20.6839 21.2936 21.2438 21.9807 22.0129 22.059V22.059C22.7821 22.1374 23.4691 21.5775 23.5475 20.8083L23.8196 18.1386C23.8979 17.3694 23.338 16.6824 22.5689 16.604V16.604Z" fill="black"/>
<path d="M32.7295 16.604C33.4986 16.5256 34.1856 17.0856 34.264 17.8547L34.5361 20.5245C34.6145 21.2936 34.0545 21.9807 33.2854 22.059V22.059C32.5163 22.1374 31.8292 21.5775 31.7509 20.8083L31.4788 18.1386C31.4004 17.3694 31.9603 16.6824 32.7295 16.604V16.604Z" fill="black"/>
<rect width="2.73594" height="19.5852" transform="matrix(-1 0 0 1 33.0073 40.9806)" fill="#FF0000"/>
<path d="M32.8608 57.8298C31.4308 57.8298 30.2715 58.9891 30.2715 60.4192L30.2715 60.5658L35.4502 60.5658L35.4502 60.4192C35.4502 58.9891 34.2909 57.8298 32.8608 57.8298V57.8298Z" fill="#FF0000"/>
<path d="M18.2539 57.8298C16.8238 57.8298 15.6646 58.9891 15.6646 60.4192L15.6646 60.5658L20.8433 60.5658L20.8433 60.4192C20.8433 58.9891 19.684 57.8298 18.2539 57.8298V57.8298Z" fill="#FF0000"/>
<rect width="2.73594" height="19.5852" transform="matrix(-1 0 0 1 18.4004 40.9806)" fill="#FF0000"/>
</svg>
