<svg width="51" height="62" viewBox="0 0 51 62" fill="none" xmlns="http://www.w3.org/2000/svg">
<circle cx="19.6139" cy="19.6139" r="19.6139" transform="matrix(-1 0 0 1 44.4116 3.8852)" fill="#FF0000"/>
<circle cx="9.80696" cy="9.80696" r="9.80696" transform="matrix(-1 0 0 1 45.343 5.17706)" fill="#FF0000"/>
<circle cx="9.80696" cy="9.80696" r="9.80696" transform="matrix(-1 0 0 1 34.0464 0.383083)" fill="#FF0000"/>
<circle cx="9.80696" cy="9.80696" r="9.80696" transform="matrix(-1 0 0 1 23.5312 5.17706)" fill="#FF0000"/>
<circle cx="9.80696" cy="9.80696" r="9.80696" transform="matrix(-1 0 0 1 20.0967 17.1226)" fill="#FF0000"/>
<circle cx="9.80696" cy="9.80696" r="9.80696" transform="matrix(-1 0 0 1 27.2917 27.2134)" fill="#FF0000"/>
<circle cx="9.80696" cy="9.80696" r="9.80696" transform="matrix(-1 0 0 1 48.4373 16.2759)" fill="#FF0000"/>
<circle cx="9.80696" cy="9.80696" r="9.80696" transform="matrix(-1 0 0 1 42.0874 27.2134)" fill="#FF0000"/>
<circle cx="13.8751" cy="13.8751" r="13.8751" transform="matrix(-1 0 0 1 39.5979 9.31651)" fill="#CC0000"/>
<circle cx="13.8751" cy="13.8751" r="13.8751" transform="matrix(-1 0 0 1 39.99 8.53195)" fill="#FF6666"/>
<path d="M22.4375 16.81C21.6684 16.7317 20.9814 17.2916 20.903 18.0607L20.6309 20.7305C20.5525 21.4996 21.1125 22.1867 21.8816 22.2651V22.2651C22.6507 22.3434 23.3378 21.7835 23.4161 21.0144L23.6882 18.3446C23.7666 17.5755 23.2066 16.8884 22.4375 16.81V16.81Z" fill="black"/>
<path d="M32.5981 16.81C33.3672 16.7317 34.0543 17.2916 34.1327 18.0607L34.4047 20.7305C34.4831 21.4996 33.9232 22.1867 33.154 22.2651V22.2651C32.3849 22.3434 31.6979 21.7835 31.6195 21.0144L31.3474 18.3446C31.269 17.5755 31.829 16.8884 32.5981 16.81V16.81Z" fill="black"/>
<rect width="2.73594" height="19.5852" transform="matrix(-0.707107 0.707107 0.707107 0.707107 34.8105 42.5759)" fill="#FF0000"/>
<path d="M46.7265 54.5655C45.7153 55.5767 45.7153 57.2162 46.7265 58.2274L46.8301 58.3311L50.492 54.6692L50.3884 54.5655C49.3772 53.5543 47.7377 53.5543 46.7265 54.5655V54.5655Z" fill="#FF0000"/>
<path d="M5.66575 57.8563C6.90422 58.5713 7.32855 60.1549 6.61352 61.3934L6.54023 61.5203L2.05533 58.931L2.12861 58.804C2.84365 57.5656 4.42728 57.1412 5.66575 57.8563V57.8563Z" fill="#FF0000"/>
<rect x="13.9636" y="43.1911" width="2.73594" height="19.5852" transform="rotate(30 13.9636 43.1911)" fill="#FF0000"/>
</svg>
