<svg width="49" height="66" viewBox="0 0 49 66" fill="none" xmlns="http://www.w3.org/2000/svg">
<circle cx="19.6139" cy="19.6139" r="19.6139" transform="matrix(-1 0 0 1 44.7561 3.8852)" fill="#FF0000"/>
<circle cx="9.80696" cy="9.80696" r="9.80696" transform="matrix(-1 0 0 1 45.6875 5.17706)" fill="#FF0000"/>
<circle cx="9.80696" cy="9.80696" r="9.80696" transform="matrix(-1 0 0 1 34.3909 0.383083)" fill="#FF0000"/>
<circle cx="9.80696" cy="9.80696" r="9.80696" transform="matrix(-1 0 0 1 23.8757 5.17706)" fill="#FF0000"/>
<circle cx="9.80696" cy="9.80696" r="9.80696" transform="matrix(-1 0 0 1 20.4412 17.1226)" fill="#FF0000"/>
<circle cx="9.80696" cy="9.80696" r="9.80696" transform="matrix(-1 0 0 1 27.6362 27.2134)" fill="#FF0000"/>
<circle cx="9.80696" cy="9.80696" r="9.80696" transform="matrix(-1 0 0 1 48.7817 16.2759)" fill="#FF0000"/>
<circle cx="9.80696" cy="9.80696" r="9.80696" transform="matrix(-1 0 0 1 42.4319 27.2134)" fill="#FF0000"/>
<circle cx="13.8751" cy="13.8751" r="13.8751" transform="matrix(-1 0 0 1 39.9424 9.31651)" fill="#CC0000"/>
<circle cx="13.8751" cy="13.8751" r="13.8751" transform="matrix(-1 0 0 1 40.3345 8.53195)" fill="#FF6666"/>
<path d="M22.782 16.81C22.0129 16.7317 21.3259 17.2916 21.2475 18.0607L20.9754 20.7305C20.897 21.4996 21.457 22.1867 22.2261 22.2651V22.2651C22.9952 22.3434 23.6822 21.7835 23.7606 21.0144L24.0327 18.3446C24.1111 17.5755 23.5511 16.8884 22.782 16.81V16.81Z" fill="black"/>
<path d="M32.9426 16.81C33.7117 16.7317 34.3988 17.2916 34.4771 18.0607L34.7492 20.7305C34.8276 21.4996 34.2676 22.1867 33.4985 22.2651V22.2651C32.7294 22.3434 32.0424 21.7835 31.964 21.0144L31.6919 18.3446C31.6135 17.5755 32.1735 16.8884 32.9426 16.81V16.81Z" fill="black"/>
<rect width="2.73594" height="19.5852" transform="matrix(-1 0 0 1 33.2205 45.9806)" fill="#FF0000"/>
<path d="M33.074 62.8298C31.6439 62.8298 30.4846 63.9891 30.4846 65.4192L30.4846 65.5658L35.6633 65.5658L35.6633 65.4192C35.6633 63.9891 34.504 62.8298 33.074 62.8298V62.8298Z" fill="#FF0000"/>
<path d="M18.467 62.8298C17.037 62.8298 15.8777 63.9891 15.8777 65.4192L15.8777 65.5658L21.0564 65.5658L21.0564 65.4192C21.0564 63.9891 19.8971 62.8298 18.467 62.8298V62.8298Z" fill="#FF0000"/>
<rect width="2.73594" height="19.5852" transform="matrix(-1 0 0 1 18.6135 45.9806)" fill="#FF0000"/>
</svg>
