<svg width="49" height="61" viewBox="0 0 49 61" fill="none" xmlns="http://www.w3.org/2000/svg">
<circle cx="19.6139" cy="19.6139" r="19.6139" transform="matrix(-1 0 0 1 44.0457 3.67917)" fill="#FF0000"/>
<circle cx="9.80696" cy="9.80696" r="9.80696" transform="matrix(-1 0 0 1 44.9771 4.97104)" fill="#FF0000"/>
<circle cx="9.80696" cy="9.80696" r="9.80696" transform="matrix(-1 0 0 1 33.6804 0.177059)" fill="#FF0000"/>
<circle cx="9.80696" cy="9.80696" r="9.80696" transform="matrix(-1 0 0 1 23.1653 4.97104)" fill="#FF0000"/>
<circle cx="9.80696" cy="9.80696" r="9.80696" transform="matrix(-1 0 0 1 19.7307 16.9165)" fill="#FF0000"/>
<circle cx="9.80696" cy="9.80696" r="9.80696" transform="matrix(-1 0 0 1 26.9258 27.0074)" fill="#FF0000"/>
<circle cx="9.80696" cy="9.80696" r="9.80696" transform="matrix(-1 0 0 1 48.0713 16.0698)" fill="#FF0000"/>
<circle cx="9.80696" cy="9.80696" r="9.80696" transform="matrix(-1 0 0 1 41.7214 27.0074)" fill="#FF0000"/>
<circle cx="13.8751" cy="13.8751" r="13.8751" transform="matrix(-1 0 0 1 39.2319 9.11049)" fill="#CC0000"/>
<circle cx="13.8751" cy="13.8751" r="13.8751" transform="matrix(-1 0 0 1 39.624 8.32593)" fill="#FF6666"/>
<path d="M22.0716 16.604C21.3024 16.5256 20.6154 17.0856 20.537 17.8547L20.2649 20.5245C20.1866 21.2936 20.7465 21.9807 21.5156 22.059V22.059C22.2848 22.1374 22.9718 21.5775 23.0502 20.8083L23.3222 18.1386C23.4006 17.3694 22.8407 16.6824 22.0716 16.604V16.604Z" fill="black"/>
<path d="M32.2322 16.604C33.0013 16.5256 33.6883 17.0856 33.7667 17.8547L34.0388 20.5245C34.1172 21.2936 33.5572 21.9807 32.7881 22.059V22.059C32.019 22.1374 31.3319 21.5775 31.2535 20.8083L30.9815 18.1386C30.9031 17.3694 31.463 16.6824 32.2322 16.604V16.604Z" fill="black"/>
<rect width="2.73594" height="19.5852" transform="matrix(-1 0 0 1 32.51 40.9806)" fill="#FF0000"/>
<path d="M32.3635 57.8298C30.9335 57.8298 29.7742 58.9891 29.7742 60.4192L29.7742 60.5658L34.9529 60.5658L34.9529 60.4192C34.9529 58.9891 33.7936 57.8298 32.3635 57.8298V57.8298Z" fill="#FF0000"/>
<path d="M17.7566 57.8298C16.3265 57.8298 15.1672 58.9891 15.1672 60.4192L15.1672 60.5658L20.346 60.5658L20.346 60.4192C20.346 58.9891 19.1867 57.8298 17.7566 57.8298V57.8298Z" fill="#FF0000"/>
<rect width="2.73594" height="19.5852" transform="matrix(-1 0 0 1 17.9031 40.9806)" fill="#FF0000"/>
</svg>
