<svg width="49" height="66" viewBox="0 0 49 66" fill="none" xmlns="http://www.w3.org/2000/svg">
<circle cx="19.6139" cy="19.6139" r="19.6139" transform="matrix(-1 0 0 1 44.8325 3.8852)" fill="#FF0000"/>
<circle cx="9.80696" cy="9.80696" r="9.80696" transform="matrix(-1 0 0 1 45.7639 5.17706)" fill="#FF0000"/>
<circle cx="9.80696" cy="9.80696" r="9.80696" transform="matrix(-1 0 0 1 34.4673 0.383083)" fill="#FF0000"/>
<circle cx="9.80696" cy="9.80696" r="9.80696" transform="matrix(-1 0 0 1 23.9521 5.17706)" fill="#FF0000"/>
<circle cx="9.80696" cy="9.80696" r="9.80696" transform="matrix(-1 0 0 1 20.5176 17.1226)" fill="#FF0000"/>
<circle cx="9.80696" cy="9.80696" r="9.80696" transform="matrix(-1 0 0 1 27.7126 27.2134)" fill="#FF0000"/>
<circle cx="9.80696" cy="9.80696" r="9.80696" transform="matrix(-1 0 0 1 48.8582 16.2759)" fill="#FF0000"/>
<circle cx="9.80696" cy="9.80696" r="9.80696" transform="matrix(-1 0 0 1 42.5083 27.2134)" fill="#FF0000"/>
<circle cx="13.8751" cy="13.8751" r="13.8751" transform="matrix(-1 0 0 1 40.0188 9.31651)" fill="#CC0000"/>
<circle cx="13.8751" cy="13.8751" r="13.8751" transform="matrix(-1 0 0 1 40.4109 8.53195)" fill="#FF6666"/>
<path d="M22.8584 16.81C22.0893 16.7317 21.4023 17.2916 21.3239 18.0607L21.0518 20.7305C20.9734 21.4996 21.5334 22.1867 22.3025 22.2651V22.2651C23.0716 22.3434 23.7587 21.7835 23.837 21.0144L24.1091 18.3446C24.1875 17.5755 23.6275 16.8884 22.8584 16.81V16.81Z" fill="black"/>
<path d="M33.019 16.81C33.7881 16.7317 34.4752 17.2916 34.5536 18.0607L34.8256 20.7305C34.904 21.4996 34.3441 22.1867 33.5749 22.2651V22.2651C32.8058 22.3434 32.1188 21.7835 32.0404 21.0144L31.7683 18.3446C31.6899 17.5755 32.2499 16.8884 33.019 16.81V16.81Z" fill="black"/>
<rect width="2.73594" height="19.5852" transform="matrix(-1 0 0 1 33.2969 45.9806)" fill="#FF0000"/>
<path d="M33.1504 62.8298C31.7203 62.8298 30.561 63.9891 30.561 65.4192L30.561 65.5658L35.7398 65.5658L35.7398 65.4192C35.7398 63.9891 34.5805 62.8298 33.1504 62.8298V62.8298Z" fill="#FF0000"/>
<path d="M18.5435 62.8298C17.1134 62.8298 15.9541 63.9891 15.9541 65.4192L15.9541 65.5658L21.1328 65.5658L21.1328 65.4192C21.1328 63.9891 19.9735 62.8298 18.5435 62.8298V62.8298Z" fill="#FF0000"/>
<rect width="2.73594" height="19.5852" transform="matrix(-1 0 0 1 18.6899 45.9806)" fill="#FF0000"/>
</svg>
