<svg width="49" height="56" viewBox="0 0 49 56" fill="none" xmlns="http://www.w3.org/2000/svg">
<circle cx="19.6139" cy="19.6139" r="19.6139" transform="matrix(-1 0 0 1 44.335 3.97601)" fill="#FF0000"/>
<circle cx="9.80696" cy="9.80696" r="9.80696" transform="matrix(-1 0 0 1 45.2664 5.26788)" fill="#FF0000"/>
<circle cx="9.80696" cy="9.80696" r="9.80696" transform="matrix(-1 0 0 1 33.9697 0.4739)" fill="#FF0000"/>
<circle cx="9.80696" cy="9.80696" r="9.80696" transform="matrix(-1 0 0 1 23.4546 5.26788)" fill="#FF0000"/>
<circle cx="9.80696" cy="9.80696" r="9.80696" transform="matrix(-1 0 0 1 20.02 17.2134)" fill="#FF0000"/>
<circle cx="9.80696" cy="9.80696" r="9.80696" transform="matrix(-1 0 0 1 27.2151 27.3042)" fill="#FF0000"/>
<circle cx="9.80696" cy="9.80696" r="9.80696" transform="matrix(-1 0 0 1 48.3606 16.3667)" fill="#FF0000"/>
<circle cx="9.80696" cy="9.80696" r="9.80696" transform="matrix(-1 0 0 1 42.0107 27.3042)" fill="#FF0000"/>
<circle cx="13.8751" cy="13.8751" r="13.8751" transform="matrix(-1 0 0 1 39.5212 9.40733)" fill="#CC0000"/>
<circle cx="13.8751" cy="13.8751" r="13.8751" transform="matrix(-1 0 0 1 39.9133 8.62276)" fill="#FF6666"/>
<path d="M22.3609 16.9009C21.5917 16.8225 20.9047 17.3824 20.8263 18.1515L20.5542 20.8213C20.4759 21.5905 21.0358 22.2775 21.8049 22.3559V22.3559C22.5741 22.4343 23.2611 21.8743 23.3395 21.1052L23.6116 18.4354C23.6899 17.6663 23.13 16.9792 22.3609 16.9009V16.9009Z" fill="black"/>
<path d="M32.5215 16.9009C33.2906 16.8225 33.9776 17.3824 34.056 18.1515L34.3281 20.8213C34.4065 21.5905 33.8465 22.2775 33.0774 22.3559V22.3559C32.3083 22.4343 31.6212 21.8743 31.5429 21.1052L31.2708 18.4354C31.1924 17.6663 31.7523 16.9792 32.5215 16.9009V16.9009Z" fill="black"/>
<rect width="2.73594" height="16.3341" transform="matrix(-1 0 0 1 32.7993 39.2317)" fill="#FF0000"/>
<path d="M32.6528 52.8298C31.2228 52.8298 30.0635 53.9891 30.0635 55.4192L30.0635 55.5658L35.2422 55.5658L35.2422 55.4192C35.2422 53.9891 34.0829 52.8298 32.6528 52.8298V52.8298Z" fill="#FF0000"/>
<path d="M18.0459 52.8298C16.6158 52.8298 15.4565 53.9891 15.4565 55.4192L15.4565 55.5658L20.6353 55.5658L20.6353 55.4192C20.6353 53.9891 19.476 52.8298 18.0459 52.8298V52.8298Z" fill="#FF0000"/>
<rect width="2.73594" height="16.3341" transform="matrix(-1 0 0 1 18.1924 39.2317)" fill="#FF0000"/>
</svg>
