<svg width="49" height="56" viewBox="0 0 49 56" fill="none" xmlns="http://www.w3.org/2000/svg">
<circle cx="19.6139" cy="19.6139" r="19.6139" transform="matrix(-1 0 0 1 44.2534 3.97601)" fill="#FF0000"/>
<circle cx="9.80696" cy="9.80696" r="9.80696" transform="matrix(-1 0 0 1 45.1848 5.26788)" fill="#FF0000"/>
<circle cx="9.80696" cy="9.80696" r="9.80696" transform="matrix(-1 0 0 1 33.8882 0.4739)" fill="#FF0000"/>
<circle cx="9.80696" cy="9.80696" r="9.80696" transform="matrix(-1 0 0 1 23.373 5.26788)" fill="#FF0000"/>
<circle cx="9.80696" cy="9.80696" r="9.80696" transform="matrix(-1 0 0 1 19.9385 17.2134)" fill="#FF0000"/>
<circle cx="9.80696" cy="9.80696" r="9.80696" transform="matrix(-1 0 0 1 27.1335 27.3042)" fill="#FF0000"/>
<circle cx="9.80696" cy="9.80696" r="9.80696" transform="matrix(-1 0 0 1 48.2791 16.3667)" fill="#FF0000"/>
<circle cx="9.80696" cy="9.80696" r="9.80696" transform="matrix(-1 0 0 1 41.9292 27.3042)" fill="#FF0000"/>
<circle cx="13.8751" cy="13.8751" r="13.8751" transform="matrix(-1 0 0 1 39.4397 9.40733)" fill="#CC0000"/>
<circle cx="13.8751" cy="13.8751" r="13.8751" transform="matrix(-1 0 0 1 39.8318 8.62276)" fill="#FF6666"/>
<path d="M22.2793 16.9009C21.5102 16.8225 20.8232 17.3824 20.7448 18.1515L20.4727 20.8213C20.3943 21.5905 20.9543 22.2775 21.7234 22.3559V22.3559C22.4925 22.4343 23.1795 21.8743 23.2579 21.1052L23.53 18.4354C23.6084 17.6663 23.0484 16.9792 22.2793 16.9009V16.9009Z" fill="black"/>
<path d="M32.4399 16.9009C33.209 16.8225 33.8961 17.3824 33.9745 18.1515L34.2465 20.8213C34.3249 21.5905 33.765 22.2775 32.9958 22.3559V22.3559C32.2267 22.4343 31.5397 21.8743 31.4613 21.1052L31.1892 18.4354C31.1108 17.6663 31.6708 16.9792 32.4399 16.9009V16.9009Z" fill="black"/>
<rect width="2.73594" height="16.3341" transform="matrix(-1 0 0 1 32.7178 39.2317)" fill="#FF0000"/>
<path d="M32.5713 52.8298C31.1412 52.8298 29.9819 53.9891 29.9819 55.4192L29.9819 55.5658L35.1607 55.5658L35.1607 55.4192C35.1607 53.9891 34.0014 52.8298 32.5713 52.8298V52.8298Z" fill="#FF0000"/>
<path d="M17.9644 52.8298C16.5343 52.8298 15.375 53.9891 15.375 55.4192L15.375 55.5658L20.5537 55.5658L20.5537 55.4192C20.5537 53.9891 19.3944 52.8298 17.9644 52.8298V52.8298Z" fill="#FF0000"/>
<rect width="2.73594" height="16.3341" transform="matrix(-1 0 0 1 18.1108 39.2317)" fill="#FF0000"/>
</svg>
