<svg width="617" height="2110" viewBox="0 0 617 2110" fill="none" xmlns="http://www.w3.org/2000/svg">
<path fill-rule="evenodd" clip-rule="evenodd" d="M220.977 1753.03L389.264 1361.88L463.11 1420.52H542.613L616.816 1361.88V1220.07H418.069L389.264 976.256H500.212L558.514 857.001V743.047H346.506L251.299 430.334L346.506 295.179L418.069 252.022V201.236H67.0295L113.118 0.34021H0.649414V295.179L251.299 257.225L89.0901 397.86L166.908 810.178L346.506 842.14L166.908 960.402L265.876 1235.41L68.1621 1753.03L149.819 1801.55L89.0901 1847.03L220.977 1989.6L0.649414 2043.93V2109.32H418.069V1925.87L251.299 1847.03L377.135 1801.55V1753.03H220.977Z" fill="#990000"/>
<path d="M251.299 257.225L0.649414 295.179V960.402L102.676 1195.45L0.649414 1502.17V2043.93L220.977 1989.6L89.0901 1847.03L149.819 1801.55L68.1621 1753.03L265.876 1235.41L166.908 960.402L346.506 842.14L166.908 810.178L89.0901 397.86L251.299 257.225Z" fill="#990000"/>
<path d="M102.676 1195.45L0.649414 960.402V1502.17L102.676 1195.45Z" fill="#990000"/>
</svg>
