<svg width="2628" height="696" viewBox="0 0 2628 696" fill="none" xmlns="http://www.w3.org/2000/svg">
<path d="M2543.84 285.641L2627.98 380.752L2412.15 552.684L1991.46 596.581L1673.21 695.351L1630.11 593.001L1557.63 615.945L1147.92 491.765L1081.92 430.311L1017.05 455.147L1006.27 522.637L883.024 592.371L456.491 555.606L348.092 490.416L163.904 497.048L0.147217 399.737L48.1802 326.244L100.835 231.578L174.336 205.123L182.964 145.921L269.515 94.8102L564.25 165.85L579.877 180.188L605.356 180.868L1023.95 127.003L1026.5 127.914L1052.81 79.7134L1371.07 155.915L1747.63 186.23L1768.32 161.265L2178.03 0.307617L2313.03 55.7012L2337.54 138.4L2448.73 161.265L2543.84 285.641Z" fill="#00FFFF"/>
</svg>
