<svg width="49" height="56" viewBox="0 0 49 56" fill="none" xmlns="http://www.w3.org/2000/svg">
<circle cx="19.6139" cy="19.6139" r="19.6139" transform="matrix(-1 0 0 1 44.7292 3.69948)" fill="#FF0000"/>
<circle cx="9.80696" cy="9.80696" r="9.80696" transform="matrix(-1 0 0 1 45.6606 4.99133)" fill="#FF0000"/>
<circle cx="9.80696" cy="9.80696" r="9.80696" transform="matrix(-1 0 0 1 34.364 0.197357)" fill="#FF0000"/>
<circle cx="9.80696" cy="9.80696" r="9.80696" transform="matrix(-1 0 0 1 23.8489 4.99133)" fill="#FF0000"/>
<circle cx="9.80696" cy="9.80696" r="9.80696" transform="matrix(-1 0 0 1 20.4143 16.9368)" fill="#FF0000"/>
<circle cx="9.80696" cy="9.80696" r="9.80696" transform="matrix(-1 0 0 1 27.6094 27.0276)" fill="#FF0000"/>
<circle cx="9.80696" cy="9.80696" r="9.80696" transform="matrix(-1 0 0 1 48.7549 16.0901)" fill="#FF0000"/>
<circle cx="9.80696" cy="9.80696" r="9.80696" transform="matrix(-1 0 0 1 42.405 27.0276)" fill="#FF0000"/>
<circle cx="13.8751" cy="13.8751" r="13.8751" transform="matrix(-1 0 0 1 39.9155 9.13078)" fill="#CC0000"/>
<circle cx="13.8751" cy="13.8751" r="13.8751" transform="matrix(-1 0 0 1 40.3076 8.34622)" fill="#FF6666"/>
<path d="M22.7552 16.6243C21.986 16.5459 21.299 17.1059 21.2206 17.875L20.9485 20.5448C20.8702 21.3139 21.4301 22.001 22.1992 22.0793V22.0793C22.9683 22.1577 23.6554 21.5978 23.7338 20.8286L24.0058 18.1588C24.0842 17.3897 23.5243 16.7027 22.7552 16.6243V16.6243Z" fill="black"/>
<path d="M32.9157 16.6243C33.6849 16.5459 34.3719 17.1059 34.4503 17.875L34.7224 20.5448C34.8007 21.3139 34.2408 22.001 33.4717 22.0793V22.0793C32.7026 22.1577 32.0155 21.5978 31.9371 20.8286L31.6651 18.1588C31.5867 17.3897 32.1466 16.7027 32.9157 16.6243V16.6243Z" fill="black"/>
<rect width="2.73594" height="16.3341" transform="matrix(-1 0 0 1 33.1936 38.9551)" fill="#FF0000"/>
<path d="M33.0471 52.5533C31.6171 52.5533 30.4578 53.7126 30.4578 55.1426L30.4578 55.2892L35.6365 55.2892L35.6365 55.1426C35.6365 53.7126 34.4772 52.5533 33.0471 52.5533V52.5533Z" fill="#FF0000"/>
<path d="M18.4402 52.5533C17.0101 52.5533 15.8508 53.7126 15.8508 55.1426L15.8508 55.2892L21.0296 55.2892L21.0296 55.1426C21.0296 53.7126 19.8703 52.5533 18.4402 52.5533V52.5533Z" fill="#FF0000"/>
<rect width="2.73594" height="16.3341" transform="matrix(-1 0 0 1 18.5867 38.9551)" fill="#FF0000"/>
</svg>
