<svg width="7463" height="13721" viewBox="0 0 7463 13721" fill="none" xmlns="http://www.w3.org/2000/svg">
<path d="M4027.27 4387.35L4546.33 4272.76V5408.82L3877.9 5422.29L4027.27 4387.35Z" fill="#00CC00"/>
<path d="M2246.35 595.284L2302.89 595.284V286.629H2070.21V1212.59H2302.89V903.937L2246.35 903.938V595.284Z" fill="url(#paint0_linear_261_18)"/>
<path d="M2246.35 1521.25L2302.89 1521.25V1829.9H2246.35V2138.56H2070.21V1212.59H2246.35V1521.25Z" fill="url(#paint1_linear_261_18)"/>
<path d="M2069.94 2601.54L2070.21 2601.69V2138.56H2302.89V2447.21L2246.35 2447.21V2698.87L2497.6 2837.49L2724.84 3899.73L2639.99 3892.14L2572.22 4353.23L2500.99 4757.5L2776.3 5328.89L2645.2 5504.52L2564.37 5502.67L2500.83 6362.91L2787.38 6476.47L2602.44 7094.13V7106.28L2302.98 7326.4L2725.03 7445.72V7650.58H3318.87V7934.63L3601.84 8421.15L5163.69 10562.7L5389.92 11476.8H4215.78L3891.12 11991.1L1483.42 11807.2L1109.92 12651.9L770.885 13720.7L0.882812 13577V7754.86L2070.21 7094.13V6199.97L2067.53 6198.73L2065.73 5764.86L2067.49 4950.93L2059.36 4952.4V3816.34H2059.56L2069.94 2601.54Z" fill="url(#paint2_linear_261_18)"/>
<path d="M4313.65 4006.7L4368.67 4006.7V4315.36H4544.8V4006.7L4546.33 4006.7V3698.05L4543.27 3698.05V3389.39L4544.8 3389.39V3080.74H4541.74V2772.08H4365.61V3080.74H4312.12V3389.39L4367.14 3389.39V3698.05L4313.65 3698.05V4006.7Z" fill="url(#paint3_linear_261_18)"/>
<path d="M4547.86 1537.47L4546.33 1537.46V1846.12H4549.39V2154.77H4547.86V2463.43L4543.27 2463.43V2772.08H4310.6V2463.43L4371.73 2463.43V2154.77H4316.71V1846.12H4370.2V1537.46L4315.18 1537.47V1228.81H4547.86V1537.47Z" fill="url(#paint4_linear_261_18)"/>
<path d="M4546.33 920.155L4544.8 920.155V1228.81H4368.67V920.155L3991.83 920.154V830.802H4313.65V611.5H4364.08V308.715H4560.17L4554.32 611.5H4546.33V920.155Z" fill="url(#paint5_linear_261_18)"/>
<path d="M2319.92 12435L2264.24 12497.7L2066.73 12435V12325.6H2319.92V12435Z" fill="url(#paint6_linear_261_18)"/>
<path d="M4511.71 13485.1L1891.41 13261V12651.9H6111.87V12117.5H6524.05L6025.6 9999.07L5389.92 10091.5L4234.92 8421.15L4073.51 7934.63L3409.45 6567.16L3760.23 6710.42L3741.75 6300.76L3847.4 6251.15L3825.15 5836.46L3523.3 5798.79L3503.18 5418.37L4246.58 5252.07L4545.71 5371.12V6272.98L4545.32 6273.01V7106.28L6254.05 8421.15L7034.98 10297.4L7462.28 13200.1L6904 13261L4511.71 13485.1Z" fill="url(#paint7_linear_261_18)"/>
<path d="M3156.06 12497.7L3332.54 12435V12325.6H3059.26V12435L3156.06 12497.7Z" fill="url(#paint8_linear_261_18)"/>
<path d="M4541.74 0.0605469H4309.07V308.715H4541.74V0.0605469Z" fill="url(#paint9_linear_261_18)"/>
<defs>
<linearGradient id="paint0_linear_261_18" x1="3250.96" y1="6723.65" x2="3731.58" y2="11749.7" gradientUnits="userSpaceOnUse">
<stop stop-color="#00CC00"/>
<stop offset="1" stop-color="#990000"/>
</linearGradient>
<linearGradient id="paint1_linear_261_18" x1="3250.96" y1="6723.65" x2="3731.58" y2="11749.7" gradientUnits="userSpaceOnUse">
<stop stop-color="#00CC00"/>
<stop offset="1" stop-color="#990000"/>
</linearGradient>
<linearGradient id="paint2_linear_261_18" x1="3250.96" y1="6723.65" x2="3731.58" y2="11749.7" gradientUnits="userSpaceOnUse">
<stop stop-color="#00CC00"/>
<stop offset="1" stop-color="#990000"/>
</linearGradient>
<linearGradient id="paint3_linear_261_18" x1="3250.96" y1="6723.65" x2="3731.58" y2="11749.7" gradientUnits="userSpaceOnUse">
<stop stop-color="#00CC00"/>
<stop offset="1" stop-color="#990000"/>
</linearGradient>
<linearGradient id="paint4_linear_261_18" x1="3250.96" y1="6723.65" x2="3731.58" y2="11749.7" gradientUnits="userSpaceOnUse">
<stop stop-color="#00CC00"/>
<stop offset="1" stop-color="#990000"/>
</linearGradient>
<linearGradient id="paint5_linear_261_18" x1="3250.96" y1="6723.65" x2="3731.58" y2="11749.7" gradientUnits="userSpaceOnUse">
<stop stop-color="#00CC00"/>
<stop offset="1" stop-color="#990000"/>
</linearGradient>
<linearGradient id="paint6_linear_261_18" x1="3250.96" y1="6723.65" x2="3731.58" y2="11749.7" gradientUnits="userSpaceOnUse">
<stop stop-color="#00CC00"/>
<stop offset="1" stop-color="#990000"/>
</linearGradient>
<linearGradient id="paint7_linear_261_18" x1="3250.96" y1="6723.65" x2="3731.58" y2="11749.7" gradientUnits="userSpaceOnUse">
<stop stop-color="#00CC00"/>
<stop offset="1" stop-color="#990000"/>
</linearGradient>
<linearGradient id="paint8_linear_261_18" x1="3250.96" y1="6723.65" x2="3731.58" y2="11749.7" gradientUnits="userSpaceOnUse">
<stop stop-color="#00CC00"/>
<stop offset="1" stop-color="#990000"/>
</linearGradient>
<linearGradient id="paint9_linear_261_18" x1="3250.96" y1="6723.65" x2="3731.58" y2="11749.7" gradientUnits="userSpaceOnUse">
<stop stop-color="#00CC00"/>
<stop offset="1" stop-color="#990000"/>
</linearGradient>
</defs>
</svg>
