<svg width="64" height="286" viewBox="0 0 64 286" fill="none" xmlns="http://www.w3.org/2000/svg">
<path d="M41.0825 3.18787C41.0825 16.5426 23.0825 16.5426 23.0825 29.8973C23.0825 43.252 41.0825 43.252 41.0825 56.6067C41.0825 69.9614 23.0825 69.9614 23.0825 83.2848C23.0825 96.6399 41.0825 96.6399 41.0825 109.963C41.0825 123.318 23.0825 123.318 23.0825 136.641C23.0825 149.996 41.0825 149.996 41.0825 163.35C41.0825 176.705 23.0825 176.705 23.0825 190.06C23.0825 203.414 41.0825 203.414 41.0825 216.769C41.0825 230.124 23.0825 230.124 23.0825 243.479C23.0825 256.833 41.0825 256.833 41.0825 270.188" stroke="#B366FF" stroke-width="5" stroke-miterlimit="10" stroke-linecap="round"/>
<path d="M41.0842 211.348C41.0842 211.348 40.8149 221.789 47.0885 228.062C53.3621 234.336 63.803 234.067 63.803 234.067C63.803 234.067 64.0724 223.626 57.7988 217.352C51.5251 211.079 41.0842 211.348 41.0842 211.348Z" fill="#F2C94C"/>
<path d="M41.0842 157.626C41.0842 157.626 40.8149 168.067 47.0885 174.34C53.3621 180.614 63.803 180.344 63.803 180.344C63.803 180.344 64.0724 169.904 57.7988 163.63C51.5251 157.356 41.0842 157.626 41.0842 157.626Z" fill="#F2C94C"/>
<path d="M41.0842 103.904C41.0842 103.904 40.8149 114.345 47.0885 120.618C53.3621 126.892 63.803 126.622 63.803 126.622C63.803 126.622 64.0724 116.182 57.7988 109.908C51.5251 103.634 41.0842 103.904 41.0842 103.904Z" fill="#F2C94C"/>
<path d="M41.0842 50.1816C41.0842 50.1816 40.8149 60.6225 47.0885 66.8961C53.3621 73.1698 63.803 72.9003 63.803 72.9003C63.803 72.9003 64.0724 62.4595 57.7988 56.1859C51.5251 49.9122 41.0842 50.1816 41.0842 50.1816Z" fill="#F2C94C"/>
<path d="M22.803 240.348C22.803 240.348 23.0723 250.789 16.7987 257.062C10.5251 263.336 0.0842042 263.067 0.0842042 263.067C0.0842042 263.067 -0.185167 252.626 6.08845 246.352C12.3621 240.079 22.803 240.348 22.803 240.348Z" fill="#F2C94C"/>
<path d="M22.803 186.626C22.803 186.626 23.0723 197.067 16.7987 203.34C10.5251 209.614 0.0842042 209.344 0.0842042 209.344C0.0842042 209.344 -0.185167 198.904 6.08845 192.63C12.3621 186.356 22.803 186.626 22.803 186.626Z" fill="#F2C94C"/>
<path d="M22.803 132.904C22.803 132.904 23.0723 143.345 16.7987 149.618C10.5251 155.892 0.0842042 155.622 0.0842042 155.622C0.0842042 155.622 -0.185167 145.182 6.08845 138.908C12.3621 132.634 22.803 132.904 22.803 132.904Z" fill="#F2C94C"/>
<path d="M22.803 79.1816C22.803 79.1816 23.0723 89.6225 16.7987 95.8961C10.5251 102.17 0.0842042 101.9 0.0842042 101.9C0.0842042 101.9 -0.185167 91.4595 6.08845 85.1859C12.3621 78.9122 22.803 79.1816 22.803 79.1816Z" fill="#F2C94C"/>
<path d="M22.803 25.4596C22.803 25.4596 23.0723 35.9005 16.7987 42.1741C10.5251 48.4477 0.0842042 48.1783 0.0842042 48.1783C0.0842042 48.1783 -0.185167 37.7375 6.08845 31.4638C12.3621 25.1902 22.803 25.4596 22.803 25.4596Z" fill="#F2C94C"/>
<path fill-rule="evenodd" clip-rule="evenodd" d="M44.944 263.437C53.0135 254.07 60.8885 267.925 48.8329 270.17C60.8885 272.511 52.9163 286.27 44.944 276.902C49.0273 288.611 33.18 288.514 37.2634 276.902C29.1939 286.27 21.3189 272.511 33.3745 270.17C21.2216 267.925 29.1939 254.167 37.2634 263.437C33.0828 251.825 49.0273 251.825 44.944 263.437ZM41.055 268.413C42.0274 268.413 42.9023 269.194 42.9023 270.17C42.9023 271.145 42.0274 272.024 41.055 272.024C40.0829 272.024 39.305 271.145 39.305 270.17C39.305 269.194 40.0829 268.413 41.055 268.413Z" fill="#FFFF99"/>
</svg>
