<svg width="65" height="1647" viewBox="0 0 65 1647" fill="none" xmlns="http://www.w3.org/2000/svg">
<path d="M42.0635 1363.6C42.0635 1376.95 24.0635 1376.95 24.0635 1390.31C24.0635 1403.66 42.0635 1403.66 42.0635 1417.02C42.0635 1430.37 24.0635 1430.37 24.0635 1443.69C24.0635 1457.05 42.0635 1457.05 42.0635 1470.37C42.0635 1483.73 24.0635 1483.73 24.0635 1497.05C24.0635 1510.41 42.0635 1510.41 42.0635 1523.76C42.0635 1537.11 24.0635 1537.11 24.0635 1550.47C24.0635 1563.82 42.0635 1563.82 42.0635 1577.18C42.0635 1590.53 24.0635 1590.53 24.0635 1603.89C24.0635 1617.24 42.0635 1617.24 42.0635 1630.6" stroke="#B366FF" stroke-width="5" stroke-miterlimit="10" stroke-linecap="round"/>
<path d="M42.0652 1571.76C42.0652 1571.76 41.7958 1582.2 48.0695 1588.47C54.3431 1594.75 64.784 1594.48 64.784 1594.48C64.784 1594.48 65.0533 1584.04 58.7797 1577.76C52.5061 1571.49 42.0652 1571.76 42.0652 1571.76Z" fill="#F2C94C"/>
<path d="M42.0652 1518.04C42.0652 1518.04 41.7958 1528.48 48.0695 1534.75C54.3431 1541.02 64.784 1540.75 64.784 1540.75C64.784 1540.75 65.0533 1530.31 58.7797 1524.04C52.5061 1517.77 42.0652 1518.04 42.0652 1518.04Z" fill="#F2C94C"/>
<path d="M42.0652 1464.31C42.0652 1464.31 41.7958 1474.75 48.0695 1481.03C54.3431 1487.3 64.784 1487.03 64.784 1487.03C64.784 1487.03 65.0533 1476.59 58.7797 1470.32C52.5061 1464.04 42.0652 1464.31 42.0652 1464.31Z" fill="#F2C94C"/>
<path d="M42.0652 1410.59C42.0652 1410.59 41.7958 1421.03 48.0695 1427.31C54.3431 1433.58 64.784 1433.31 64.784 1433.31C64.784 1433.31 65.0533 1422.87 58.7797 1416.6C52.5061 1410.32 42.0652 1410.59 42.0652 1410.59Z" fill="#F2C94C"/>
<path d="M23.784 1600.76C23.784 1600.76 24.0533 1611.2 17.7797 1617.47C11.506 1623.75 1.06516 1623.48 1.06516 1623.48C1.06516 1623.48 0.79579 1613.04 7.0694 1606.76C13.343 1600.49 23.784 1600.76 23.784 1600.76Z" fill="#F2C94C"/>
<path d="M23.784 1547.04C23.784 1547.04 24.0533 1557.48 17.7797 1563.75C11.506 1570.02 1.06516 1569.75 1.06516 1569.75C1.06516 1569.75 0.79579 1559.31 7.0694 1553.04C13.343 1546.77 23.784 1547.04 23.784 1547.04Z" fill="#F2C94C"/>
<path d="M23.784 1493.31C23.784 1493.31 24.0533 1503.75 17.7797 1510.03C11.506 1516.3 1.06516 1516.03 1.06516 1516.03C1.06516 1516.03 0.79579 1505.59 7.0694 1499.32C13.343 1493.04 23.784 1493.31 23.784 1493.31Z" fill="#F2C94C"/>
<path d="M23.784 1439.59C23.784 1439.59 24.0533 1450.03 17.7797 1456.31C11.506 1462.58 1.06516 1462.31 1.06516 1462.31C1.06516 1462.31 0.79579 1451.87 7.0694 1445.6C13.343 1439.32 23.784 1439.59 23.784 1439.59Z" fill="#F2C94C"/>
<path d="M23.784 1385.87C23.784 1385.87 24.0533 1396.31 17.7797 1402.58C11.506 1408.86 1.06516 1408.59 1.06516 1408.59C1.06516 1408.59 0.79579 1398.15 7.0694 1391.87C13.343 1385.6 23.784 1385.87 23.784 1385.87Z" fill="#F2C94C"/>
<path fill-rule="evenodd" clip-rule="evenodd" d="M45.9255 1623.85C53.995 1614.48 61.8699 1628.34 49.8143 1630.58C61.8699 1632.92 53.8978 1646.68 45.9255 1637.31C50.0088 1649.02 34.1615 1648.92 38.2449 1637.31C30.1754 1646.68 22.3003 1632.92 34.3559 1630.58C22.2031 1628.34 30.1754 1614.58 38.2449 1623.85C34.0643 1612.24 50.0088 1612.24 45.9255 1623.85ZM42.0365 1628.82C43.0088 1628.82 43.8837 1629.6 43.8837 1630.58C43.8837 1631.56 43.0088 1632.43 42.0365 1632.43C41.0643 1632.43 40.2865 1631.56 40.2865 1630.58C40.2865 1629.6 41.0643 1628.82 42.0365 1628.82Z" fill="#FFFF99"/>
<path d="M41.9243 829.598C41.9243 842.953 23.9243 842.953 23.9243 856.307C23.9243 869.662 41.9243 869.662 41.9243 883.017C41.9243 896.371 23.9243 896.371 23.9243 909.695C23.9243 923.05 41.9243 923.05 41.9243 936.373C41.9243 949.728 23.9243 949.728 23.9243 963.051C23.9243 976.406 41.9243 976.406 41.9243 989.76C41.9243 1003.11 23.9243 1003.11 23.9243 1016.47C23.9243 1029.82 41.9243 1029.82 41.9243 1043.18C41.9243 1056.53 23.9243 1056.53 23.9243 1069.89C23.9243 1083.24 41.9243 1083.24 41.9243 1096.6" stroke="#B366FF" stroke-width="5" stroke-miterlimit="10" stroke-linecap="round"/>
<path d="M41.9243 1096.6C41.9243 1109.95 23.9243 1109.95 23.9243 1123.31C23.9243 1136.66 41.9243 1136.66 41.9243 1150.02C41.9243 1163.37 23.9243 1163.37 23.9243 1176.69C23.9243 1190.05 41.9243 1190.05 41.9243 1203.37C41.9243 1216.73 23.9243 1216.73 23.9243 1230.05C23.9243 1243.41 41.9243 1243.41 41.9243 1256.76C41.9243 1270.11 23.9243 1270.11 23.9243 1283.47C23.9243 1296.82 41.9243 1296.82 41.9243 1310.18C41.9243 1323.53 23.9243 1323.53 23.9243 1336.89C23.9243 1350.24 41.9243 1350.24 41.9243 1363.6" stroke="#B366FF" stroke-width="5" stroke-miterlimit="10" stroke-linecap="round"/>
<path d="M41.926 1306.37C41.926 1306.37 41.6567 1316.81 47.9303 1323.08C54.2039 1329.36 64.6448 1329.09 64.6448 1329.09C64.6448 1329.09 64.9142 1318.65 58.6406 1312.37C52.3669 1306.1 41.926 1306.37 41.926 1306.37Z" fill="#F2C94C"/>
<path d="M41.926 1252.65C41.926 1252.65 41.6567 1263.09 47.9303 1269.36C54.2039 1275.63 64.6448 1275.36 64.6448 1275.36C64.6448 1275.36 64.9142 1264.92 58.6406 1258.65C52.3669 1252.38 41.926 1252.65 41.926 1252.65Z" fill="#F2C94C"/>
<path d="M41.926 1198.92C41.926 1198.92 41.6567 1209.36 47.9303 1215.64C54.2039 1221.91 64.6448 1221.64 64.6448 1221.64C64.6448 1221.64 64.9142 1211.2 58.6406 1204.93C52.3669 1198.65 41.926 1198.92 41.926 1198.92Z" fill="#F2C94C"/>
<path d="M41.926 1145.2C41.926 1145.2 41.6567 1155.64 47.9303 1161.92C54.2039 1168.19 64.6448 1167.92 64.6448 1167.92C64.6448 1167.92 64.9142 1157.48 58.6406 1151.21C52.3669 1144.93 41.926 1145.2 41.926 1145.2Z" fill="#F2C94C"/>
<path d="M41.926 1091.48C41.926 1091.48 41.6567 1101.92 47.9303 1108.19C54.2039 1114.47 64.6448 1114.2 64.6448 1114.2C64.6448 1114.2 64.9142 1103.76 58.6406 1097.48C52.3669 1091.21 41.926 1091.48 41.926 1091.48Z" fill="#F2C94C"/>
<path d="M41.926 1037.76C41.926 1037.76 41.6567 1048.2 47.9303 1054.47C54.2039 1060.75 64.6448 1060.48 64.6448 1060.48C64.6448 1060.48 64.9142 1050.04 58.6406 1043.76C52.3669 1037.49 41.926 1037.76 41.926 1037.76Z" fill="#F2C94C"/>
<path d="M41.926 984.036C41.926 984.036 41.6567 994.477 47.9303 1000.75C54.2039 1007.02 64.6448 1006.75 64.6448 1006.75C64.6448 1006.75 64.9142 996.314 58.6406 990.04C52.3669 983.766 41.926 984.036 41.926 984.036Z" fill="#F2C94C"/>
<path d="M41.926 930.314C41.926 930.314 41.6567 940.755 47.9303 947.028C54.2039 953.302 64.6448 953.032 64.6448 953.032C64.6448 953.032 64.9142 942.592 58.6406 936.318C52.3669 930.044 41.926 930.314 41.926 930.314Z" fill="#F2C94C"/>
<path d="M41.926 876.592C41.926 876.592 41.6567 887.033 47.9303 893.306C54.2039 899.58 64.6448 899.31 64.6448 899.31C64.6448 899.31 64.9142 888.869 58.6406 882.596C52.3669 876.322 41.926 876.592 41.926 876.592Z" fill="#F2C94C"/>
<path d="M23.6448 1335.37C23.6448 1335.37 23.9141 1345.81 17.6405 1352.08C11.3669 1358.36 0.926001 1358.09 0.926001 1358.09C0.926001 1358.09 0.65663 1347.65 6.93024 1341.37C13.2039 1335.1 23.6448 1335.37 23.6448 1335.37Z" fill="#F2C94C"/>
<path d="M23.6448 1281.65C23.6448 1281.65 23.9141 1292.09 17.6405 1298.36C11.3669 1304.63 0.926001 1304.36 0.926001 1304.36C0.926001 1304.36 0.65663 1293.92 6.93024 1287.65C13.2039 1281.38 23.6448 1281.65 23.6448 1281.65Z" fill="#F2C94C"/>
<path d="M23.6448 1227.92C23.6448 1227.92 23.9141 1238.36 17.6405 1244.64C11.3669 1250.91 0.926001 1250.64 0.926001 1250.64C0.926001 1250.64 0.65663 1240.2 6.93024 1233.93C13.2039 1227.65 23.6448 1227.92 23.6448 1227.92Z" fill="#F2C94C"/>
<path d="M23.6448 1174.2C23.6448 1174.2 23.9141 1184.64 17.6405 1190.92C11.3669 1197.19 0.926001 1196.92 0.926001 1196.92C0.926001 1196.92 0.65663 1186.48 6.93024 1180.21C13.2039 1173.93 23.6448 1174.2 23.6448 1174.2Z" fill="#F2C94C"/>
<path d="M23.6448 1120.48C23.6448 1120.48 23.9141 1130.92 17.6405 1137.19C11.3669 1143.47 0.926001 1143.2 0.926001 1143.2C0.926001 1143.2 0.65663 1132.76 6.93024 1126.48C13.2039 1120.21 23.6448 1120.48 23.6448 1120.48Z" fill="#F2C94C"/>
<path d="M23.6448 1066.76C23.6448 1066.76 23.9141 1077.2 17.6405 1083.47C11.3669 1089.75 0.926001 1089.48 0.926001 1089.48C0.926001 1089.48 0.65663 1079.04 6.93024 1072.76C13.2039 1066.49 23.6448 1066.76 23.6448 1066.76Z" fill="#F2C94C"/>
<path d="M23.6448 1013.04C23.6448 1013.04 23.9141 1023.48 17.6405 1029.75C11.3669 1036.02 0.926001 1035.75 0.926001 1035.75C0.926001 1035.75 0.65663 1025.31 6.93024 1019.04C13.2039 1012.77 23.6448 1013.04 23.6448 1013.04Z" fill="#F2C94C"/>
<path d="M23.6448 959.314C23.6448 959.314 23.9141 969.755 17.6405 976.028C11.3669 982.302 0.926001 982.032 0.926001 982.032C0.926001 982.032 0.65663 971.592 6.93024 965.318C13.2039 959.044 23.6448 959.314 23.6448 959.314Z" fill="#F2C94C"/>
<path d="M23.6448 905.592C23.6448 905.592 23.9141 916.033 17.6405 922.306C11.3669 928.58 0.926001 928.31 0.926001 928.31C0.926001 928.31 0.65663 917.87 6.93024 911.596C13.2039 905.322 23.6448 905.592 23.6448 905.592Z" fill="#F2C94C"/>
<path d="M23.6448 851.87C23.6448 851.87 23.9141 862.31 17.6405 868.584C11.3669 874.858 0.926001 874.588 0.926001 874.588C0.926001 874.588 0.65663 864.147 6.93024 857.874C13.2039 851.6 23.6448 851.87 23.6448 851.87Z" fill="#F2C94C"/>
<path fill-rule="evenodd" clip-rule="evenodd" d="M45.9255 1355.44C53.995 1346.07 61.8699 1359.92 49.8143 1362.17C61.8699 1364.51 53.8978 1378.27 45.9255 1368.9C50.0088 1380.61 34.1615 1380.51 38.2449 1368.9C30.1754 1378.27 22.3003 1364.51 34.3559 1362.17C22.2031 1359.92 30.1754 1346.17 38.2449 1355.44C34.0643 1343.82 50.0088 1343.82 45.9255 1355.44ZM42.0365 1360.41C43.0088 1360.41 43.8837 1361.19 43.8837 1362.17C43.8837 1363.14 43.0088 1364.02 42.0365 1364.02C41.0643 1364.02 40.2865 1363.14 40.2865 1362.17C40.2865 1361.19 41.0643 1360.41 42.0365 1360.41Z" fill="#FFFF99"/>
<path d="M41.9243 537.188C41.9243 550.543 23.9243 550.543 23.9243 563.897C23.9243 577.252 41.9243 577.252 41.9243 590.607C41.9243 603.961 23.9243 603.961 23.9243 617.285C23.9243 630.64 41.9243 630.64 41.9243 643.963C41.9243 657.318 23.9243 657.318 23.9243 670.641C23.9243 683.996 41.9243 683.996 41.9243 697.35C41.9243 710.705 23.9243 710.705 23.9243 724.06C23.9243 737.414 41.9243 737.414 41.9243 750.769C41.9243 764.124 23.9243 764.124 23.9243 777.479C23.9243 790.833 41.9243 790.833 41.9243 804.188" stroke="#B366FF" stroke-width="5" stroke-miterlimit="10" stroke-linecap="round"/>
<path d="M41.926 746.958C41.926 746.958 41.6567 757.399 47.9303 763.673C54.2039 769.946 64.6448 769.677 64.6448 769.677C64.6448 769.677 64.9142 759.236 58.6406 752.962C52.3669 746.689 41.926 746.958 41.926 746.958Z" fill="#F2C94C"/>
<path d="M41.926 693.236C41.926 693.236 41.6567 703.677 47.9303 709.951C54.2039 716.224 64.6448 715.955 64.6448 715.955C64.6448 715.955 64.9142 705.514 58.6406 699.24C52.3669 692.967 41.926 693.236 41.926 693.236Z" fill="#F2C94C"/>
<path d="M41.926 639.514C41.926 639.514 41.6567 649.955 47.9303 656.229C54.2039 662.502 64.6448 662.233 64.6448 662.233C64.6448 662.233 64.9142 651.792 58.6406 645.518C52.3669 639.245 41.926 639.514 41.926 639.514Z" fill="#F2C94C"/>
<path d="M41.926 585.792C41.926 585.792 41.6567 596.233 47.9303 602.507C54.2039 608.78 64.6448 608.511 64.6448 608.511C64.6448 608.511 64.9142 598.07 58.6406 591.796C52.3669 585.523 41.926 585.792 41.926 585.792Z" fill="#F2C94C"/>
<path d="M23.6448 775.958C23.6448 775.958 23.9141 786.399 17.6405 792.673C11.3669 798.946 0.926001 798.677 0.926001 798.677C0.926001 798.677 0.65663 788.236 6.93024 781.962C13.2039 775.689 23.6448 775.958 23.6448 775.958Z" fill="#F2C94C"/>
<path d="M23.6448 722.236C23.6448 722.236 23.9141 732.677 17.6405 738.951C11.3669 745.224 0.926001 744.955 0.926001 744.955C0.926001 744.955 0.65663 734.514 6.93024 728.24C13.2039 721.967 23.6448 722.236 23.6448 722.236Z" fill="#F2C94C"/>
<path d="M23.6448 668.514C23.6448 668.514 23.9141 678.955 17.6405 685.229C11.3669 691.502 0.926001 691.233 0.926001 691.233C0.926001 691.233 0.65663 680.792 6.93024 674.518C13.2039 668.245 23.6448 668.514 23.6448 668.514Z" fill="#F2C94C"/>
<path d="M23.6448 614.792C23.6448 614.792 23.9141 625.233 17.6405 631.506C11.3669 637.78 0.926001 637.511 0.926001 637.511C0.926001 637.511 0.65663 627.07 6.93024 620.796C13.2039 614.523 23.6448 614.792 23.6448 614.792Z" fill="#F2C94C"/>
<path d="M23.6448 561.07C23.6448 561.07 23.9141 571.511 17.6405 577.784C11.3669 584.058 0.926001 583.789 0.926001 583.789C0.926001 583.789 0.65663 573.348 6.93024 567.074C13.2039 560.8 23.6448 561.07 23.6448 561.07Z" fill="#F2C94C"/>
<path fill-rule="evenodd" clip-rule="evenodd" d="M50.7326 807.387C58.8021 798.02 66.677 811.876 54.6214 814.12C66.677 816.462 58.7049 830.22 50.7326 820.853C54.8159 832.562 38.9686 832.464 43.052 820.853C34.9825 830.22 27.1074 816.462 39.1631 814.12C27.0102 811.876 34.9825 798.118 43.052 807.387C38.8714 795.776 54.8159 795.776 50.7326 807.387ZM46.8436 812.364C47.8159 812.364 48.6909 813.144 48.6909 814.12C48.6909 815.096 47.8159 815.974 46.8436 815.974C45.8714 815.974 45.0936 815.096 45.0936 814.12C45.0936 813.144 45.8714 812.364 46.8436 812.364Z" fill="#FFFF99"/>
<path d="M41.9243 270.188C41.9243 283.543 23.9243 283.543 23.9243 296.897C23.9243 310.252 41.9243 310.252 41.9243 323.607C41.9243 336.961 23.9243 336.961 23.9243 350.285C23.9243 363.64 41.9243 363.64 41.9243 376.963C41.9243 390.318 23.9243 390.318 23.9243 403.641C23.9243 416.996 41.9243 416.996 41.9243 430.35C41.9243 443.705 23.9243 443.705 23.9243 457.06C23.9243 470.414 41.9243 470.414 41.9243 483.769C41.9243 497.124 23.9243 497.124 23.9243 510.479C23.9243 523.833 41.9243 523.833 41.9243 537.188" stroke="#B366FF" stroke-width="5" stroke-miterlimit="10" stroke-linecap="round"/>
<path d="M41.926 478.348C41.926 478.348 41.6567 488.789 47.9303 495.062C54.2039 501.336 64.6448 501.067 64.6448 501.067C64.6448 501.067 64.9142 490.626 58.6406 484.352C52.3669 478.079 41.926 478.348 41.926 478.348Z" fill="#F2C94C"/>
<path d="M41.926 424.626C41.926 424.626 41.6567 435.067 47.9303 441.34C54.2039 447.614 64.6448 447.344 64.6448 447.344C64.6448 447.344 64.9142 436.904 58.6406 430.63C52.3669 424.356 41.926 424.626 41.926 424.626Z" fill="#F2C94C"/>
<path d="M41.926 370.904C41.926 370.904 41.6567 381.345 47.9303 387.618C54.2039 393.892 64.6448 393.622 64.6448 393.622C64.6448 393.622 64.9142 383.182 58.6406 376.908C52.3669 370.634 41.926 370.904 41.926 370.904Z" fill="#F2C94C"/>
<path d="M41.926 317.182C41.926 317.182 41.6567 327.623 47.9303 333.896C54.2039 340.17 64.6448 339.9 64.6448 339.9C64.6448 339.9 64.9142 329.459 58.6406 323.186C52.3669 316.912 41.926 317.182 41.926 317.182Z" fill="#F2C94C"/>
<path d="M23.6448 507.348C23.6448 507.348 23.9141 517.789 17.6405 524.062C11.3669 530.336 0.926001 530.067 0.926001 530.067C0.926001 530.067 0.65663 519.626 6.93024 513.352C13.2039 507.078 23.6448 507.348 23.6448 507.348Z" fill="#F2C94C"/>
<path d="M23.6448 453.626C23.6448 453.626 23.9141 464.067 17.6405 470.34C11.3669 476.614 0.926001 476.344 0.926001 476.344C0.926001 476.344 0.65663 465.904 6.93024 459.63C13.2039 453.356 23.6448 453.626 23.6448 453.626Z" fill="#F2C94C"/>
<path d="M23.6448 399.904C23.6448 399.904 23.9141 410.345 17.6405 416.618C11.3669 422.892 0.926001 422.622 0.926001 422.622C0.926001 422.622 0.65663 412.182 6.93024 405.908C13.2039 399.634 23.6448 399.904 23.6448 399.904Z" fill="#F2C94C"/>
<path d="M23.6448 346.182C23.6448 346.182 23.9141 356.623 17.6405 362.896C11.3669 369.17 0.926001 368.9 0.926001 368.9C0.926001 368.9 0.65663 358.459 6.93024 352.186C13.2039 345.912 23.6448 346.182 23.6448 346.182Z" fill="#F2C94C"/>
<path d="M23.6448 292.46C23.6448 292.46 23.9141 302.9 17.6405 309.174C11.3669 315.448 0.926001 315.178 0.926001 315.178C0.926001 315.178 0.65663 304.737 6.93024 298.464C13.2039 292.19 23.6448 292.46 23.6448 292.46Z" fill="#F2C94C"/>
<path fill-rule="evenodd" clip-rule="evenodd" d="M50.7394 524.317C58.809 514.95 66.6839 528.806 54.6283 531.05C66.6839 533.392 58.7117 547.15 50.7394 537.783C54.8227 549.492 38.9754 549.394 43.0588 537.783C34.9893 547.15 27.1143 533.392 39.1699 531.05C27.0171 528.806 34.9893 515.048 43.0588 524.317C38.8782 512.706 54.8227 512.706 50.7394 524.317ZM46.8505 529.294C47.8228 529.294 48.6977 530.074 48.6977 531.05C48.6977 532.026 47.8228 532.904 46.8505 532.904C45.8783 532.904 45.1004 532.026 45.1004 531.05C45.1004 530.074 45.8783 529.294 46.8505 529.294Z" fill="#FFFF99"/>
<path d="M41.9243 3.18787C41.9243 16.5426 23.9243 16.5426 23.9243 29.8973C23.9243 43.252 41.9243 43.252 41.9243 56.6067C41.9243 69.9614 23.9243 69.9614 23.9243 83.2848C23.9243 96.6399 41.9243 96.6399 41.9243 109.963C41.9243 123.318 23.9243 123.318 23.9243 136.641C23.9243 149.996 41.9243 149.996 41.9243 163.35C41.9243 176.705 23.9243 176.705 23.9243 190.06C23.9243 203.414 41.9243 203.414 41.9243 216.769C41.9243 230.124 23.9243 230.124 23.9243 243.479C23.9243 256.833 41.9243 256.833 41.9243 270.188" stroke="#B366FF" stroke-width="5" stroke-miterlimit="10" stroke-linecap="round"/>
<path d="M41.926 211.348C41.926 211.348 41.6567 221.789 47.9303 228.062C54.2039 234.336 64.6448 234.067 64.6448 234.067C64.6448 234.067 64.9142 223.626 58.6406 217.352C52.3669 211.079 41.926 211.348 41.926 211.348Z" fill="#F2C94C"/>
<path d="M41.926 157.626C41.926 157.626 41.6567 168.067 47.9303 174.34C54.2039 180.614 64.6448 180.344 64.6448 180.344C64.6448 180.344 64.9142 169.904 58.6406 163.63C52.3669 157.356 41.926 157.626 41.926 157.626Z" fill="#F2C94C"/>
<path d="M41.926 103.904C41.926 103.904 41.6567 114.345 47.9303 120.618C54.2039 126.892 64.6448 126.622 64.6448 126.622C64.6448 126.622 64.9142 116.182 58.6406 109.908C52.3669 103.634 41.926 103.904 41.926 103.904Z" fill="#F2C94C"/>
<path d="M41.926 50.1816C41.926 50.1816 41.6567 60.6225 47.9303 66.8961C54.2039 73.1698 64.6448 72.9003 64.6448 72.9003C64.6448 72.9003 64.9142 62.4595 58.6406 56.1859C52.3669 49.9122 41.926 50.1816 41.926 50.1816Z" fill="#F2C94C"/>
<path d="M23.6448 240.348C23.6448 240.348 23.9141 250.789 17.6405 257.062C11.3669 263.336 0.926001 263.067 0.926001 263.067C0.926001 263.067 0.65663 252.626 6.93024 246.352C13.2039 240.079 23.6448 240.348 23.6448 240.348Z" fill="#F2C94C"/>
<path d="M23.6448 186.626C23.6448 186.626 23.9141 197.067 17.6405 203.34C11.3669 209.614 0.926001 209.344 0.926001 209.344C0.926001 209.344 0.65663 198.904 6.93024 192.63C13.2039 186.356 23.6448 186.626 23.6448 186.626Z" fill="#F2C94C"/>
<path d="M23.6448 132.904C23.6448 132.904 23.9141 143.345 17.6405 149.618C11.3669 155.892 0.926001 155.622 0.926001 155.622C0.926001 155.622 0.65663 145.182 6.93024 138.908C13.2039 132.634 23.6448 132.904 23.6448 132.904Z" fill="#F2C94C"/>
<path d="M23.6448 79.1816C23.6448 79.1816 23.9141 89.6225 17.6405 95.8961C11.3669 102.17 0.926001 101.9 0.926001 101.9C0.926001 101.9 0.65663 91.4595 6.93024 85.1859C13.2039 78.9122 23.6448 79.1816 23.6448 79.1816Z" fill="#F2C94C"/>
<path d="M23.6448 25.4596C23.6448 25.4596 23.9141 35.9005 17.6405 42.1741C11.3669 48.4477 0.926001 48.1783 0.926001 48.1783C0.926001 48.1783 0.65663 37.7375 6.93024 31.4638C13.2039 25.1902 23.6448 25.4596 23.6448 25.4596Z" fill="#F2C94C"/>
<path fill-rule="evenodd" clip-rule="evenodd" d="M45.7858 263.437C53.8553 254.07 61.7303 267.925 49.6747 270.17C61.7303 272.511 53.7581 286.27 45.7858 276.902C49.8691 288.611 34.0218 288.514 38.1052 276.902C30.0357 286.27 22.1607 272.511 34.2163 270.17C22.0634 267.925 30.0357 254.167 38.1052 263.437C33.9246 251.825 49.8691 251.825 45.7858 263.437ZM41.8968 268.413C42.8692 268.413 43.7441 269.194 43.7441 270.17C43.7441 271.145 42.8692 272.024 41.8968 272.024C40.9247 272.024 40.1468 271.145 40.1468 270.17C40.1468 269.194 40.9247 268.413 41.8968 268.413Z" fill="#FFFF99"/>
</svg>
