<svg width="3666" height="3707" viewBox="0 0 3666 3707" fill="none" xmlns="http://www.w3.org/2000/svg">
<g style="mix-blend-mode:overlay">
<path fill-rule="evenodd" clip-rule="evenodd" d="M13.753 5.79548C10.4366 8.34289 7.12027 10.8903 0.493202 10.8947L0.476074 10.8947V108.187H1301.15V0.696289C1294.51 0.696289 1291.19 3.24593 1287.87 5.79548C1284.56 8.34289 1281.24 10.8903 1274.61 10.8947H1274.58C1267.95 10.8903 1264.64 8.34278 1261.32 5.79533C1258 3.24578 1254.68 0.696289 1248.04 0.696289C1241.4 0.696289 1238.09 3.24589 1234.77 5.79548C1231.45 8.34289 1228.13 10.8903 1221.51 10.8947H1221.47C1214.85 10.8903 1211.53 8.34299 1208.21 5.79564C1204.89 3.24599 1201.57 0.696289 1194.94 0.696289C1188.32 0.696289 1185.01 3.24282 1181.69 5.79088C1178.38 8.33982 1175.06 10.8903 1168.43 10.8947H1168.4C1161.79 10.8903 1158.48 8.34596 1155.17 5.8001C1151.85 3.24897 1148.53 0.696289 1141.89 0.696289C1135.27 0.696289 1131.96 3.2429 1128.65 5.79101C1125.33 8.3399 1122.02 10.8903 1115.38 10.8947H1115.35C1108.72 10.8903 1105.41 8.34289 1102.09 5.79548C1098.77 3.24589 1095.45 0.696289 1088.81 0.696289C1082.17 0.696289 1078.86 3.24589 1075.54 5.79548C1072.22 8.34289 1068.9 10.8903 1062.28 10.8947H1062.24C1055.61 10.8903 1052.3 8.34278 1048.98 5.79533C1045.66 3.24578 1042.34 0.696289 1035.71 0.696289C1029.07 0.696289 1025.75 3.24589 1022.43 5.79548C1019.11 8.34289 1015.8 10.8903 1009.17 10.8947H1009.13C1002.51 10.8903 999.19 8.34279 995.874 5.79533C992.555 3.24579 989.236 0.696289 982.598 0.696289C975.959 0.696289 972.64 3.24589 969.32 5.79548C966.004 8.34289 962.687 10.8903 956.06 10.8947H956.026C949.399 10.8903 946.083 8.34298 942.767 5.79562C939.448 3.24598 936.128 0.696289 929.49 0.696289C922.871 0.696289 919.559 3.24283 916.246 5.7909C912.932 8.33983 909.615 10.8903 902.984 10.8947H902.95C896.342 10.8903 893.034 8.34596 889.723 5.80009C886.406 3.24896 883.087 0.696289 876.444 0.696289C869.825 0.696289 866.513 3.24289 863.2 5.79099C859.886 8.33989 856.569 10.8903 849.938 10.8947H849.904C843.277 10.8903 839.961 8.34289 836.644 5.79549C833.325 3.24589 830.006 0.696289 823.367 0.696289C816.729 0.696289 813.409 3.24589 810.09 5.79549C806.774 8.34289 803.457 10.8903 796.83 10.8947H796.796C790.169 10.8903 786.852 8.34279 783.536 5.79533C780.217 3.24579 776.898 0.696289 770.26 0.696289C763.621 0.696289 760.302 3.24589 756.983 5.79548C753.666 8.34289 750.35 10.8903 743.722 10.8947H743.688C737.061 10.8903 733.744 8.34279 730.428 5.79534C727.109 3.24579 723.79 0.696289 717.152 0.696289C710.513 0.696289 707.194 3.24588 703.875 5.79547C700.558 8.34288 697.242 10.8903 690.614 10.8947H690.58C683.954 10.8903 680.637 8.34298 677.321 5.79562C674.002 3.24598 670.682 0.696289 664.044 0.696289C657.425 0.696289 654.114 3.24283 650.8 5.7909C647.486 8.33983 644.169 10.8903 637.538 10.8947H637.504C630.897 10.8903 627.588 8.34595 624.278 5.80008C620.96 3.24895 617.641 0.696289 610.998 0.696289C604.379 0.696289 601.068 3.2429 597.754 5.79101C594.44 8.3399 591.124 10.8903 584.493 10.8947H584.458C577.831 10.8903 574.515 8.34289 571.198 5.79548C567.879 3.24589 564.56 0.696289 557.922 0.696289C551.283 0.696289 547.964 3.24589 544.645 5.79548C541.328 8.34289 538.012 10.8903 531.385 10.8947H531.351C524.723 10.8903 521.407 8.34279 518.09 5.79533C514.771 3.24579 511.452 0.696289 504.814 0.696289C498.175 0.696289 494.856 3.24589 491.537 5.79548C488.22 8.34289 484.904 10.8903 478.277 10.8947H478.242C471.615 10.8903 468.299 8.34279 464.982 5.79534C461.663 3.24579 458.344 0.696289 451.706 0.696289C445.067 0.696289 441.748 3.24589 438.429 5.79548C435.112 8.34289 431.796 10.8903 425.169 10.8947H425.134C418.508 10.8903 415.192 8.34298 411.875 5.79563C408.556 3.24598 405.237 0.696289 398.598 0.696289C391.979 0.696289 388.668 3.24283 385.355 5.7909C382.04 8.33983 378.724 10.8903 372.092 10.8947H372.058C365.451 10.8903 362.142 8.34595 358.832 5.80009C355.515 3.24896 352.195 0.696289 345.552 0.696289C338.933 0.696289 335.622 3.24289 332.309 5.79099C328.994 8.33989 325.678 10.8903 319.047 10.8947H319.013C312.385 10.8903 309.069 8.34289 305.753 5.79548C302.434 3.24589 299.114 0.696289 292.476 0.696289C285.837 0.696289 282.518 3.24589 279.199 5.79549C275.882 8.34289 272.566 10.8903 265.939 10.8947H265.905C259.277 10.8903 255.961 8.34279 252.644 5.79534C249.325 3.24579 246.006 0.696289 239.368 0.696289C232.73 0.696289 229.41 3.24589 226.091 5.79548C222.775 8.34289 219.458 10.8903 212.831 10.8947H212.797C206.169 10.8903 202.853 8.34279 199.536 5.79534C196.217 3.24579 192.898 0.696289 186.26 0.696289C179.622 0.696289 176.302 3.24589 172.983 5.79548C169.667 8.34289 166.35 10.8903 159.723 10.8947H159.689C153.062 10.8903 149.746 8.34298 146.43 5.79563C143.11 3.24598 139.791 0.696289 133.152 0.696289C126.533 0.696289 123.222 3.24283 119.909 5.7909C116.594 8.33983 113.278 10.8903 106.647 10.8947H106.612C100.005 10.8903 96.6966 8.34595 93.3861 5.80008C90.0687 3.24895 86.7494 0.696289 80.1067 0.696289C73.4877 0.696289 70.1762 3.2429 66.8628 5.791C63.5484 8.33989 60.232 10.8903 53.601 10.8947H53.5668C46.9397 10.8903 43.6233 8.34289 40.307 5.79548C36.9877 3.24589 33.6685 0.696289 27.03 0.696289C20.3915 0.696289 17.0723 3.24589 13.753 5.79548Z" fill="black"/>
<path fill-rule="evenodd" clip-rule="evenodd" d="M3551.3 3701.36C3554.62 3698.81 3557.94 3696.27 3564.56 3696.26H3564.58V3598.97L2263.91 3598.97V3706.46C2270.54 3706.46 2273.86 3703.91 2277.18 3701.36C2280.5 3698.81 2283.82 3696.27 2290.44 3696.26H2290.48C2297.1 3696.27 2300.42 3698.81 2303.74 3701.36C2307.06 3703.91 2310.38 3706.46 2317.01 3706.46C2323.65 3706.46 2326.97 3703.91 2330.29 3701.36C2333.61 3698.81 2336.92 3696.27 2343.55 3696.26H2343.59C2350.21 3696.27 2353.53 3698.81 2356.84 3701.36C2360.16 3703.91 2363.48 3706.46 2370.12 3706.46C2376.74 3706.46 2380.05 3703.91 2383.37 3701.37C2386.68 3698.82 2390 3696.27 2396.63 3696.26H2396.66C2403.27 3696.27 2406.58 3698.81 2409.89 3701.36C2413.21 3703.91 2416.52 3706.46 2423.17 3706.46C2429.79 3706.46 2433.1 3703.91 2436.41 3701.37C2439.73 3698.82 2443.04 3696.27 2449.67 3696.26H2449.71C2456.33 3696.27 2459.65 3698.81 2462.97 3701.36C2466.29 3703.91 2469.61 3706.46 2476.24 3706.46C2482.88 3706.46 2486.2 3703.91 2489.52 3701.36C2492.84 3698.81 2496.15 3696.27 2502.78 3696.26H2502.82C2509.44 3696.27 2512.76 3698.81 2516.08 3701.36C2519.39 3703.91 2522.71 3706.46 2529.35 3706.46C2535.99 3706.46 2539.31 3703.91 2542.63 3701.36C2545.95 3698.81 2549.26 3696.27 2555.89 3696.26H2555.92C2562.55 3696.27 2565.87 3698.81 2569.18 3701.36C2572.5 3703.91 2575.82 3706.46 2582.46 3706.46C2589.1 3706.46 2592.42 3703.91 2595.74 3701.36C2599.05 3698.81 2602.37 3696.27 2609 3696.26H2609.03C2615.66 3696.27 2618.97 3698.81 2622.29 3701.36C2625.61 3703.91 2628.93 3706.46 2635.57 3706.46C2642.19 3706.46 2645.5 3703.91 2648.81 3701.37C2652.13 3698.82 2655.44 3696.27 2662.07 3696.26H2662.11C2668.71 3696.27 2672.02 3698.81 2675.33 3701.36C2678.65 3703.91 2681.97 3706.46 2688.61 3706.46C2695.23 3706.46 2698.54 3703.91 2701.86 3701.37C2705.17 3698.82 2708.49 3696.27 2715.12 3696.26H2715.15C2721.78 3696.27 2725.1 3698.81 2728.41 3701.36C2731.73 3703.91 2735.05 3706.46 2741.69 3706.46C2748.33 3706.46 2751.65 3703.91 2754.97 3701.36C2758.28 3698.81 2761.6 3696.27 2768.23 3696.26H2768.26C2774.89 3696.27 2778.2 3698.81 2781.52 3701.36C2784.84 3703.91 2788.16 3706.46 2794.8 3706.46C2801.44 3706.46 2804.76 3703.91 2808.07 3701.36C2811.39 3698.81 2814.71 3696.27 2821.33 3696.26H2821.37C2828 3696.27 2831.31 3698.81 2834.63 3701.36C2837.95 3703.91 2841.27 3706.46 2847.91 3706.46C2854.54 3706.46 2857.86 3703.91 2861.18 3701.36C2864.5 3698.81 2867.82 3696.27 2874.44 3696.26H2874.48C2881.1 3696.27 2884.42 3698.81 2887.74 3701.36C2891.06 3703.91 2894.37 3706.46 2901.01 3706.46C2907.63 3706.46 2910.94 3703.91 2914.26 3701.37C2917.57 3698.82 2920.89 3696.27 2927.52 3696.26H2927.55C2934.16 3696.27 2937.47 3698.81 2940.78 3701.36C2944.1 3703.91 2947.42 3706.46 2954.06 3706.46C2960.68 3706.46 2963.99 3703.91 2967.3 3701.37C2970.62 3698.82 2973.93 3696.27 2980.56 3696.26H2980.6C2987.23 3696.27 2990.54 3698.81 2993.86 3701.36C2997.18 3703.91 3000.5 3706.46 3007.14 3706.46C3013.77 3706.46 3017.09 3703.91 3020.41 3701.36C3023.73 3698.81 3027.05 3696.27 3033.67 3696.26H3033.71C3040.33 3696.27 3043.65 3698.81 3046.97 3701.36C3050.29 3703.91 3053.61 3706.46 3060.24 3706.46C3066.88 3706.46 3070.2 3703.91 3073.52 3701.36C3076.84 3698.81 3080.15 3696.27 3086.78 3696.26H3086.81C3093.44 3696.27 3096.76 3698.81 3100.07 3701.36C3103.39 3703.91 3106.71 3706.46 3113.35 3706.46C3119.99 3706.46 3123.31 3703.91 3126.63 3701.36C3129.94 3698.81 3133.26 3696.27 3139.89 3696.26H3139.92C3146.55 3696.27 3149.87 3698.81 3153.18 3701.36C3156.5 3703.91 3159.82 3706.46 3166.46 3706.46C3173.08 3706.46 3176.39 3703.91 3179.7 3701.37C3183.02 3698.82 3186.33 3696.27 3192.96 3696.26H3193C3199.61 3696.27 3202.91 3698.81 3206.23 3701.36C3209.54 3703.91 3212.86 3706.46 3219.5 3706.46C3226.12 3706.46 3229.44 3703.91 3232.75 3701.37C3236.06 3698.82 3239.38 3696.27 3246.01 3696.26H3246.04C3252.67 3696.27 3255.99 3698.81 3259.3 3701.36C3262.62 3703.91 3265.94 3706.46 3272.58 3706.46C3279.22 3706.46 3282.54 3703.91 3285.86 3701.36C3289.17 3698.81 3292.49 3696.27 3299.12 3696.26H3299.15C3305.78 3696.27 3309.1 3698.81 3312.41 3701.36C3315.73 3703.91 3319.05 3706.46 3325.69 3706.46C3332.33 3706.46 3335.65 3703.91 3338.97 3701.36C3342.28 3698.81 3345.6 3696.27 3352.23 3696.26H3352.26C3358.89 3696.27 3362.2 3698.81 3365.52 3701.36C3368.84 3703.91 3372.16 3706.46 3378.8 3706.46C3385.44 3706.46 3388.75 3703.91 3392.07 3701.36C3395.39 3698.81 3398.71 3696.27 3405.33 3696.26H3405.37C3412 3696.27 3415.31 3698.81 3418.63 3701.36C3421.95 3703.91 3425.27 3706.46 3431.91 3706.46C3438.52 3706.46 3441.84 3703.91 3445.15 3701.37C3448.46 3698.82 3451.78 3696.27 3458.41 3696.26H3458.44C3465.05 3696.27 3468.36 3698.81 3471.67 3701.36C3474.99 3703.91 3478.31 3706.46 3484.95 3706.46C3491.57 3706.46 3494.88 3703.91 3498.19 3701.37C3501.51 3698.82 3504.83 3696.27 3511.46 3696.26H3511.49C3518.12 3696.27 3521.43 3698.81 3524.75 3701.36C3528.07 3703.91 3531.39 3706.46 3538.03 3706.46C3544.67 3706.46 3547.98 3703.91 3551.3 3701.36Z" fill="black"/>
<path d="M1301.15 108.187H0.476074L2263.91 3598.97L3564.58 3598.97L3665.88 2600.54L1301.15 108.187Z" fill="black"/>
</g>
</svg>
