<svg width="1302" height="109" viewBox="0 0 1302 109" fill="none" xmlns="http://www.w3.org/2000/svg">
<g style="mix-blend-mode:overlay">
<path fill-rule="evenodd" clip-rule="evenodd" d="M13.9264 5.92381C10.61 8.47121 7.29361 11.0186 0.666542 11.023L0.649414 11.023V108.315H1301.32V0.824615C1294.69 0.824615 1291.37 3.37426 1288.05 5.92381C1284.73 8.47121 1281.41 11.0186 1274.79 11.023H1274.75C1268.13 11.0186 1264.81 8.47111 1261.49 5.92365C1258.17 3.37411 1254.85 0.824615 1248.22 0.824615C1241.58 0.824615 1238.26 3.37421 1234.94 5.92381C1231.62 8.47121 1228.31 11.0186 1221.68 11.023H1221.64C1215.02 11.0186 1211.7 8.47132 1208.39 5.92397C1205.07 3.37432 1201.75 0.824615 1195.11 0.824615C1188.49 0.824615 1185.18 3.37115 1181.87 5.91921C1178.55 8.46815 1175.23 11.0186 1168.6 11.023H1168.57C1161.96 11.0186 1158.65 8.47429 1155.34 5.92843C1152.03 3.37729 1148.71 0.824615 1142.06 0.824615C1135.44 0.824615 1132.13 3.37123 1128.82 5.91933C1125.5 8.46823 1122.19 11.0186 1115.56 11.023H1115.52C1108.9 11.0186 1105.58 8.47121 1102.26 5.92381C1098.94 3.37421 1095.62 0.824615 1088.99 0.824615C1082.35 0.824615 1079.03 3.37421 1075.71 5.92381C1072.39 8.47121 1069.08 11.0186 1062.45 11.023H1062.42C1055.79 11.0186 1052.47 8.47111 1049.16 5.92365C1045.84 3.37411 1042.52 0.824615 1035.88 0.824615C1029.24 0.824615 1025.92 3.37421 1022.6 5.92381C1019.29 8.47121 1015.97 11.0186 1009.34 11.023H1009.31C1002.68 11.0186 999.363 8.47111 996.047 5.92366C992.728 3.37411 989.409 0.824615 982.771 0.824615C976.132 0.824615 972.813 3.37421 969.494 5.92381C966.177 8.47121 962.861 11.0186 956.233 11.023H956.199C949.573 11.0186 946.256 8.47131 942.94 5.92395C939.621 3.37431 936.302 0.824615 929.663 0.824615C923.044 0.824615 919.733 3.37116 916.419 5.91923C913.105 8.46816 909.788 11.0186 903.157 11.023H903.123C896.516 11.0186 893.207 8.47428 889.897 5.92842C886.579 3.37729 883.26 0.824615 876.617 0.824615C869.998 0.824615 866.687 3.37122 863.373 5.91932C860.059 8.46822 856.743 11.0186 850.112 11.023H850.077C843.45 11.0186 840.134 8.47122 836.818 5.92382C833.498 3.37422 830.179 0.824615 823.541 0.824615C816.902 0.824615 813.583 3.37422 810.264 5.92382C806.947 8.47122 803.631 11.0186 797.004 11.023H796.97C790.342 11.0186 787.026 8.47111 783.709 5.92366C780.39 3.37411 777.071 0.824615 770.433 0.824615C763.795 0.824615 760.475 3.37421 757.156 5.92381C753.839 8.47121 750.523 11.0186 743.896 11.023H743.862C737.234 11.0186 733.918 8.47112 730.601 5.92367C727.282 3.37412 723.963 0.824615 717.325 0.824615C710.687 0.824615 707.367 3.37421 704.048 5.9238C700.731 8.47121 697.415 11.0186 690.788 11.023H690.753C684.127 11.0186 680.811 8.47131 677.494 5.92395C674.175 3.37431 670.856 0.824615 664.217 0.824615C657.598 0.824615 654.287 3.37116 650.974 5.91923C647.659 8.46816 644.343 11.0186 637.712 11.023H637.677C631.07 11.0186 627.761 8.47428 624.451 5.92841C621.134 3.37728 617.814 0.824615 611.172 0.824615C604.553 0.824615 601.241 3.37123 597.928 5.91933C594.613 8.46823 591.297 11.0186 584.666 11.023H584.632C578.005 11.0186 574.688 8.47121 571.372 5.92381C568.053 3.37421 564.733 0.824615 558.095 0.824615C551.456 0.824615 548.137 3.37421 544.818 5.92381C541.502 8.47121 538.185 11.0186 531.558 11.023H531.524C524.897 11.0186 521.58 8.47111 518.264 5.92366C514.944 3.37411 511.625 0.824615 504.987 0.824615C498.349 0.824615 495.029 3.37421 491.71 5.92381C488.394 8.47121 485.077 11.0186 478.45 11.023H478.416C471.788 11.0186 468.472 8.47112 465.156 5.92367C461.836 3.37412 458.517 0.824615 451.879 0.824615C445.241 0.824615 441.921 3.37421 438.602 5.92381C435.286 8.47121 431.969 11.0186 425.342 11.023H425.308C418.681 11.0186 415.365 8.47131 412.049 5.92396C408.729 3.37431 405.41 0.824615 398.771 0.824615C392.153 0.824615 388.841 3.37116 385.528 5.91923C382.213 8.46816 378.897 11.0186 372.266 11.023H372.232C365.624 11.0186 362.316 8.47428 359.005 5.92841C355.688 3.37728 352.368 0.824615 345.726 0.824615C339.107 0.824615 335.795 3.37122 332.482 5.91932C329.167 8.46822 325.851 11.0186 319.22 11.023H319.186C312.559 11.0186 309.242 8.47121 305.926 5.92381C302.607 3.37421 299.288 0.824615 292.649 0.824615C286.011 0.824615 282.691 3.37422 279.372 5.92381C276.056 8.47122 272.739 11.0186 266.112 11.023H266.078C259.451 11.0186 256.134 8.47112 252.818 5.92367C249.499 3.37412 246.18 0.824615 239.542 0.824615C232.903 0.824615 229.584 3.37421 226.264 5.92381C222.948 8.47121 219.631 11.0186 213.004 11.023H212.97C206.343 11.0186 203.026 8.47112 199.71 5.92367C196.391 3.37412 193.072 0.824615 186.434 0.824615C179.795 0.824615 176.476 3.37421 173.156 5.92381C169.84 8.47121 166.523 11.0186 159.896 11.023H159.862C153.235 11.0186 149.919 8.47131 146.603 5.92396C143.284 3.37431 139.964 0.824615 133.326 0.824615C126.707 0.824615 123.395 3.37116 120.082 5.91922C116.768 8.46815 113.451 11.0186 106.82 11.023H106.786C100.178 11.0186 96.8699 8.47428 93.5594 5.92841C90.2421 3.37728 86.9227 0.824615 80.2801 0.824615C73.661 0.824615 70.3496 3.37122 67.0362 5.91932C63.7217 8.46822 60.4053 11.0186 53.7744 11.023H53.7401C47.1131 11.0186 43.7967 8.47121 40.4803 5.92381C37.1611 3.37421 33.8418 0.824615 27.2033 0.824615C20.5649 0.824615 17.2456 3.37421 13.9264 5.92381Z" fill="black"/>
</g>
</svg>
